<svg xmlns="http://www.w3.org/2000/svg" viewBox="0 0 1200 630" width="1200" height="630"><title>ElectroDromos</title><rect width="1200" height="630" fill="#08090B"/><line x1="0" y1="470" x2="0" y2="630" stroke="#12151A"/><line x1="60" y1="470" x2="60" y2="630" stroke="#12151A"/><line x1="120" y1="470" x2="120" y2="630" stroke="#12151A"/><line x1="180" y1="470" x2="180" y2="630" stroke="#12151A"/><line x1="240" y1="470" x2="240" y2="630" stroke="#12151A"/><line x1="300" y1="470" x2="300" y2="630" stroke="#12151A"/><line x1="360" y1="470" x2="360" y2="630" stroke="#12151A"/><line x1="420" y1="470" x2="420" y2="630" stroke="#12151A"/><line x1="480" y1="470" x2="480" y2="630" stroke="#12151A"/><line x1="540" y1="470" x2="540" y2="630" stroke="#12151A"/><line x1="600" y1="470" x2="600" y2="630" stroke="#12151A"/><line x1="660" y1="470" x2="660" y2="630" stroke="#12151A"/><line x1="720" y1="470" x2="720" y2="630" stroke="#12151A"/><line x1="780" y1="470" x2="780" y2="630" stroke="#12151A"/><line x1="840" y1="470" x2="840" y2="630" stroke="#12151A"/><line x1="900" y1="470" x2="900" y2="630" stroke="#12151A"/><line x1="960" y1="470" x2="960" y2="630" stroke="#12151A"/><line x1="1020" y1="470" x2="1020" y2="630" stroke="#12151A"/><line x1="1080" y1="470" x2="1080" y2="630" stroke="#12151A"/><line x1="1140" y1="470" x2="1140" y2="630" stroke="#12151A"/><line x1="1200" y1="470" x2="1200" y2="630" stroke="#12151A"/><line x1="0" y1="480" x2="1200" y2="480" stroke="#12151A"/><line x1="0" y1="540" x2="1200" y2="540" stroke="#12151A"/><line x1="0" y1="600" x2="1200" y2="600" stroke="#12151A"/><rect width="935" height="7" fill="#19E3E8"/><rect x="943" width="257" height="7" fill="#FF4B3A"/><g transform="translate(100 182.0) scale(0.9617)"><g transform="translate(-12.78125 -6.25) scale(2.1875) translate(32 32) skewX(-10) translate(-32 -32)"><polygon points="13,12 23,12 23,52 13,52" fill="#19E3E8"/><path d="M27,12 H35 A20,20 0 0 1 35,52 H27 V42 H35 A10,10 0 0 0 35,22 H27 Z" fill="#FF4B3A"/></g><path d="M149.125 28.75H199.625L197.625 40.25H160.725L157.625 57.949999999999996H191.625L189.625 69.25H155.625L152.425 87.25H189.325L187.325 98.75H136.825Z" fill="#F4F6F7"/><path d="M211.725 28.75H225.325L215.025 87.25H249.925L247.925 98.75H199.42499999999998Z" fill="#F4F6F7"/><path d="M269.825 28.75H320.325L318.325 40.25H281.425L278.325 57.949999999999996H312.325L310.325 69.25H276.325L273.125 87.25H310.025L308.025 98.75H257.525Z" fill="#F4F6F7"/><path d="M321.225 86.35 329.52500000000003 39.449999999999996 342.02500000000003 28.75H376.125L386.225 40.849999999999994L384.425 50.75H370.82500000000005L371.82500000000005 45.05L368.02500000000003 40.349999999999994H348.02500000000003L342.02500000000003 45.449999999999996L335.52500000000003 82.05L339.725 87.15H359.725L365.225 82.45L366.32500000000005 76.75H379.925L377.82500000000005 88.25L365.52500000000003 98.75H331.425Z" fill="#F4F6F7"/><path d="M413.825 40.25H392.925L394.925 28.75H450.32500000000005L448.225 40.25H427.425L417.125 98.75H403.52500000000003Z" fill="#F4F6F7"/><path d="M509.12500000000006 61.55 501.52500000000003 68.05 507.02500000000003 75.55 502.92500000000007 98.75H489.32500000000005L492.92500000000007 78.05L488.52500000000003 71.95H466.32500000000005L461.62500000000006 98.75H448.02500000000003L460.32500000000005 28.75H503.32500000000005L512.825 40.349999999999994ZM468.32500000000005 60.75H492.32500000000005L496.42500000000007 57.25L498.82500000000005 43.65L495.92500000000007 40.15H471.92500000000007Z" fill="#F4F6F7"/><path d="M518.625 86.35 526.9250000000001 39.449999999999996 539.4250000000001 28.75H575.4250000000001L585.625 41.05L577.225 88.45L565.0250000000001 98.75H528.825ZM558.725 87.15 564.725 82.05 571.225 45.449999999999996 567.0250000000001 40.349999999999994H545.5250000000001L539.5250000000001 45.449999999999996L532.9250000000001 82.05L537.125 87.15Z" fill="#F4F6F7"/><path d="M601.825 28.75H645.725L656.325 41.55L648.0250000000001 88.45L635.825 98.75H589.5250000000001ZM629.5250000000001 87.15 635.5250000000001 82.05 642.0250000000001 45.449999999999996 637.825 40.349999999999994H613.4250000000001L605.125 87.15Z" fill="#19E3E8"/><path d="M721.425 61.55 713.825 68.05 719.325 75.55 715.225 98.75H701.625L705.225 78.05L700.825 71.95H678.625L673.925 98.75H660.325L672.625 28.75H715.625L725.125 40.349999999999994ZM680.625 60.75H704.625L708.725 57.25L711.125 43.65L708.225 40.15H684.225Z" fill="#19E3E8"/><path d="M730.925 86.35 739.225 39.449999999999996 751.725 28.75H787.725L797.925 41.05L789.525 88.45L777.325 98.75H741.125ZM771.025 87.15 777.025 82.05 783.525 45.449999999999996 779.325 40.349999999999994H757.825L751.825 45.449999999999996L745.225 82.05L749.425 87.15Z" fill="#19E3E8"/><path d="M814.125 28.75H825.925L838.825 73.95H839.025L867.725 28.75H881.125L868.825 98.75H855.725L863.225 56.15H863.025L841.225 88.95H832.825L822.625 56.15H822.425L814.925 98.75H801.825Z" fill="#19E3E8"/><path d="M885.025 86.35 893.325 39.449999999999996 905.825 28.75H941.825L952.025 41.05L943.625 88.45L931.4250000000001 98.75H895.225ZM925.125 87.15 931.125 82.05 937.625 45.449999999999996 933.4250000000001 40.349999999999994H911.9250000000001L905.9250000000001 45.449999999999996L899.325 82.05L903.525 87.15Z" fill="#19E3E8"/><path d="M956.4250000000001 87.15 958.125 77.95H971.525L970.4250000000001 83.85L973.125 87.15H993.725L997.725 83.75L999.825 72.15L997.125 68.85H971.4250000000001L961.825 57.25L965.025 38.75L976.825 28.75H1008.325L1018.025 40.349999999999994L1016.4250000000001 49.65H1003.025L1004.025 43.65L1001.325 40.349999999999994H981.525L977.625 43.65L975.825 53.949999999999996L978.525 57.25H1004.225L1013.825 68.85L1010.225 88.75L998.525 98.75H966.025Z" fill="#19E3E8"/></g><path d="M106.91 368.358Q108.962 369.194 110.02600000000001 370.828Q111.09 372.462 111.09 374.78Q111.09 378.2 108.905 380.1Q106.72 382.0 103.148 382.0H93.952Q93.572 382.0 93.572 381.62V355.78Q93.572 355.4 93.952 355.4H102.882Q106.568 355.4 108.67699999999999 357.224Q110.786 359.048 110.786 362.354Q110.786 364.444 109.779 365.90700000000004Q108.77199999999999 367.37 106.91 368.13Q106.72 368.244 106.91 368.358ZM96.27 357.908V367.028Q96.27 367.18 96.422 367.18H102.882Q105.276 367.18 106.701 365.92600000000004Q108.126 364.672 108.126 362.582Q108.126 360.378 106.701 359.067Q105.276 357.756 102.882 357.756H96.422Q96.27 357.756 96.27 357.908ZM108.392 374.552Q108.392 372.234 106.929 370.847Q105.466 369.46 102.996 369.46H96.422Q96.27 369.46 96.27 369.612V379.454Q96.27 379.606 96.422 379.606H103.148Q105.542 379.606 106.967 378.238Q108.392 376.87 108.392 374.552Z" fill="#9BA3AC"/><path d="M130.66 368.852V381.62Q130.66 382.0 130.28 382.0H128.34199999999998Q127.96199999999999 382.0 127.96199999999999 381.62V380.062Q127.96199999999999 379.986 127.905 379.948Q127.848 379.91 127.77199999999999 379.986Q126.82199999999999 381.126 125.30199999999999 381.715Q123.782 382.304 121.91999999999999 382.304Q119.222 382.304 117.398 380.936Q115.574 379.568 115.574 376.756Q115.574 373.906 117.645 372.25300000000004Q119.716 370.6 123.40199999999999 370.6H127.80999999999999Q127.96199999999999 370.6 127.96199999999999 370.448V369.004Q127.96199999999999 367.066 126.87899999999999 365.945Q125.79599999999999 364.824 123.51599999999999 364.824Q121.692 364.824 120.55199999999999 365.52700000000004Q119.41199999999999 366.23 119.14599999999999 367.484Q119.032 367.864 118.69 367.826L116.63799999999999 367.56Q116.22 367.484 116.29599999999999 367.256Q116.6 365.128 118.576 363.798Q120.55199999999999 362.468 123.51599999999999 362.468Q126.93599999999999 362.468 128.798 364.216Q130.66 365.964 130.66 368.852ZM127.96199999999999 375.844V372.88Q127.96199999999999 372.728 127.80999999999999 372.728H123.82Q121.312 372.728 119.792 373.754Q118.27199999999999 374.78 118.27199999999999 376.604Q118.27199999999999 378.276 119.43099999999998 379.131Q120.58999999999999 379.986 122.452 379.986Q124.69399999999999 379.986 126.32799999999999 378.865Q127.96199999999999 377.744 127.96199999999999 375.844Z" fill="#9BA3AC"/><path d="M144.53 365.014H140.236Q140.084 365.014 140.084 365.166V376.376Q140.084 378.2 140.901 378.94100000000003Q141.718 379.682 143.466 379.682H144.416Q144.796 379.682 144.796 380.062V381.62Q144.796 382.0 144.416 382.0Q143.96 382.038 143.01 382.038Q140.274 382.038 138.868 381.012Q137.462 379.986 137.462 377.212V365.166Q137.462 365.014 137.31 365.014H134.992Q134.612 365.014 134.612 364.634V363.152Q134.612 362.772 134.992 362.772H137.31Q137.462 362.772 137.462 362.62V358.212Q137.462 357.832 137.842 357.832H139.704Q140.084 357.832 140.084 358.212V362.62Q140.084 362.772 140.236 362.772H144.53Q144.91 362.772 144.91 363.152V364.634Q144.91 365.014 144.53 365.014Z" fill="#9BA3AC"/><path d="M158.362 365.014H154.06799999999998Q153.916 365.014 153.916 365.166V376.376Q153.916 378.2 154.733 378.94100000000003Q155.54999999999998 379.682 157.298 379.682H158.248Q158.628 379.682 158.628 380.062V381.62Q158.628 382.0 158.248 382.0Q157.792 382.038 156.84199999999998 382.038Q154.106 382.038 152.7 381.012Q151.29399999999998 379.986 151.29399999999998 377.212V365.166Q151.29399999999998 365.014 151.142 365.014H148.82399999999998Q148.444 365.014 148.444 364.634V363.152Q148.444 362.772 148.82399999999998 362.772H151.142Q151.29399999999998 362.772 151.29399999999998 362.62V358.212Q151.29399999999998 357.832 151.674 357.832H153.536Q153.916 357.832 153.916 358.212V362.62Q153.916 362.772 154.06799999999998 362.772H158.362Q158.742 362.772 158.742 363.152V364.634Q158.742 365.014 158.362 365.014Z" fill="#9BA3AC"/><path d="M178.844 371.816V373.032Q178.844 373.412 178.464 373.412H166.19Q166.03799999999998 373.412 166.03799999999998 373.564Q166.11399999999998 375.654 166.266 376.262Q166.684 377.972 168.052 378.96Q169.42 379.948 171.548 379.948Q173.14399999999998 379.948 174.35999999999999 379.226Q175.576 378.504 176.26 377.174Q176.488 376.832 176.79199999999997 377.022L178.274 377.896Q178.57799999999997 378.086 178.426 378.428Q177.476 380.252 175.576 381.297Q173.676 382.342 171.206 382.342Q168.50799999999998 382.304 166.68399999999997 381.04999999999995Q164.85999999999999 379.796 164.06199999999998 377.554Q163.378 375.73 163.378 372.31Q163.378 370.714 163.435 369.707Q163.492 368.7 163.72 367.902Q164.36599999999999 365.432 166.32299999999998 363.95000000000005Q168.27999999999997 362.468 171.05399999999997 362.468Q174.512 362.468 176.374 364.216Q178.236 365.964 178.69199999999998 369.156Q178.844 370.22 178.844 371.816ZM166.34199999999998 368.396Q166.11399999999998 369.194 166.03799999999998 370.98Q166.03799999999998 371.132 166.19 371.132H176.03199999999998Q176.184 371.132 176.184 370.98Q176.10799999999998 369.27 175.956 368.548Q175.53799999999998 366.838 174.265 365.831Q172.992 364.824 171.05399999999997 364.824Q169.19199999999998 364.824 167.957 365.793Q166.72199999999998 366.762 166.34199999999998 368.396Z" fill="#9BA3AC"/><path d="M194.11999999999998 363.076Q194.42399999999998 363.228 194.34799999999998 363.57L193.92999999999998 365.432Q193.81599999999997 365.812 193.43599999999998 365.66Q192.78999999999996 365.394 191.95399999999998 365.394L191.45999999999998 365.432Q189.48399999999998 365.508 188.19199999999998 366.895Q186.89999999999998 368.282 186.89999999999998 370.41V381.62Q186.89999999999998 382.0 186.51999999999998 382.0H184.58199999999997Q184.20199999999997 382.0 184.20199999999997 381.62V363.152Q184.20199999999997 362.772 184.58199999999997 362.772H186.51999999999998Q186.89999999999998 362.772 186.89999999999998 363.152V365.47Q186.89999999999998 365.584 186.957 365.603Q187.01399999999998 365.622 187.05199999999996 365.546Q187.84999999999997 364.14 189.08499999999998 363.361Q190.31999999999996 362.582 191.95399999999998 362.582Q193.20799999999997 362.582 194.11999999999998 363.076Z" fill="#9BA3AC"/><path d="M196.89399999999998 389.22V387.7Q196.89399999999998 387.32 197.27399999999997 387.32H197.42599999999996Q198.90799999999996 387.282 199.72499999999997 386.883Q200.54199999999997 386.484 201.13099999999997 385.40099999999995Q201.71999999999997 384.318 202.40399999999997 382.114Q202.47999999999996 381.962 202.40399999999997 381.886L195.98199999999997 363.19L195.94399999999996 363.038Q195.94399999999996 362.772 196.28599999999997 362.772H198.29999999999998Q198.64199999999997 362.772 198.75599999999997 363.076L203.69599999999997 378.428Q203.73399999999998 378.504 203.80999999999997 378.504Q203.88599999999997 378.504 203.92399999999998 378.428L208.78799999999998 363.076Q208.90199999999996 362.772 209.24399999999997 362.772H211.21999999999997Q211.63799999999998 362.772 211.52399999999997 363.19L204.49399999999997 383.672Q203.58199999999997 386.218 202.78399999999996 387.43399999999997Q201.98599999999996 388.65 200.789 389.125Q199.59199999999998 389.6 197.42599999999996 389.6H197.15999999999997Q196.89399999999998 389.6 196.89399999999998 389.22Z" fill="#9BA3AC"/><path d="M213.99399999999997 370.98V369.384Q213.99399999999997 369.004 214.37399999999997 369.004H225.62199999999996Q226.00199999999998 369.004 226.00199999999998 369.384V370.98Q226.00199999999998 371.36 225.62199999999996 371.36H214.37399999999997Q213.99399999999997 371.36 213.99399999999997 370.98Z" fill="#9BA3AC"/><path d="M246.028 372.386Q246.028 375.426 245.534 377.098Q244.84999999999997 379.53 243.04499999999996 380.917Q241.23999999999998 382.304 238.504 382.304Q237.022 382.304 235.76799999999997 381.715Q234.51399999999998 381.126 233.67799999999997 380.024Q233.60199999999998 379.948 233.54499999999996 379.967Q233.48799999999997 379.986 233.48799999999997 380.062V388.992Q233.48799999999997 389.372 233.10799999999998 389.372H231.17Q230.79 389.372 230.79 388.992V363.152Q230.79 362.772 231.17 362.772H233.10799999999998Q233.48799999999997 362.772 233.48799999999997 363.152V364.748Q233.48799999999997 364.824 233.54499999999996 364.843Q233.60199999999998 364.862 233.67799999999997 364.786Q234.51399999999998 363.684 235.74899999999997 363.076Q236.98399999999998 362.468 238.504 362.468Q241.164 362.468 242.969 363.836Q244.77399999999997 365.204 245.45799999999997 367.56Q246.028 369.384 246.028 372.386ZM243.29199999999997 372.386Q243.29199999999997 370.6 243.14 369.593Q242.98799999999997 368.586 242.60799999999998 367.788Q242.152 366.42 240.993 365.622Q239.83399999999997 364.824 238.23799999999997 364.824Q236.718 364.824 235.69199999999998 365.622Q234.66599999999997 366.42 234.17199999999997 367.75Q233.82999999999998 368.51 233.678 369.536Q233.52599999999998 370.562 233.52599999999998 372.386Q233.52599999999998 374.21 233.678 375.255Q233.82999999999998 376.3 234.20999999999998 377.098Q234.66599999999997 378.39 235.71099999999996 379.169Q236.75599999999997 379.948 238.2 379.948Q239.71999999999997 379.948 240.84099999999998 379.188Q241.962 378.428 242.456 377.174Q242.87399999999997 376.338 243.08299999999997 375.293Q243.29199999999997 374.248 243.29199999999997 372.386Z" fill="#9BA3AC"/><path d="M261.418 363.076Q261.722 363.228 261.64599999999996 363.57L261.22799999999995 365.432Q261.114 365.812 260.734 365.66Q260.08799999999997 365.394 259.25199999999995 365.394L258.758 365.432Q256.782 365.508 255.48999999999998 366.895Q254.19799999999998 368.282 254.19799999999998 370.41V381.62Q254.19799999999998 382.0 253.81799999999998 382.0H251.87999999999997Q251.49999999999997 382.0 251.49999999999997 381.62V363.152Q251.49999999999997 362.772 251.87999999999997 362.772H253.81799999999998Q254.19799999999998 362.772 254.19799999999998 363.152V365.47Q254.19799999999998 365.584 254.255 365.603Q254.31199999999998 365.622 254.34999999999997 365.546Q255.14799999999997 364.14 256.383 363.361Q257.618 362.582 259.25199999999995 362.582Q260.506 362.582 261.418 363.076Z" fill="#9BA3AC"/><path d="M265.21799999999996 377.022Q264.686 375.274 264.686 372.348Q264.686 369.422 265.21799999999996 367.712Q265.94 365.28 267.916 363.874Q269.892 362.468 272.70399999999995 362.468Q275.402 362.468 277.359 363.874Q279.316 365.28 280.03799999999995 367.674Q280.57 369.308 280.57 372.348Q280.57 375.426 280.03799999999995 377.022Q279.316 379.492 277.359 380.898Q275.402 382.304 272.666 382.304Q269.92999999999995 382.304 267.95399999999995 380.898Q265.97799999999995 379.492 265.21799999999996 377.022ZM277.53 376.224Q277.87199999999996 374.856 277.87199999999996 372.386Q277.87199999999996 369.878 277.568 368.548Q277.11199999999997 366.838 275.80099999999993 365.831Q274.48999999999995 364.824 272.628 364.824Q270.76599999999996 364.824 269.47399999999993 365.831Q268.18199999999996 366.838 267.726 368.548Q267.42199999999997 369.878 267.42199999999997 372.386Q267.42199999999997 374.894 267.726 376.224Q268.14399999999995 377.934 269.4549999999999 378.94100000000003Q270.76599999999996 379.948 272.666 379.948Q274.48999999999995 379.948 275.7819999999999 378.94100000000003Q277.07399999999996 377.934 277.53 376.224Z" fill="#9BA3AC"/><path d="M285.92799999999994 377.022Q285.39599999999996 375.274 285.39599999999996 372.348Q285.39599999999996 369.422 285.92799999999994 367.712Q286.65 365.28 288.626 363.874Q290.602 362.468 293.41399999999993 362.468Q296.11199999999997 362.468 298.06899999999996 363.874Q300.02599999999995 365.28 300.74799999999993 367.674Q301.28 369.308 301.28 372.348Q301.28 375.426 300.74799999999993 377.022Q300.02599999999995 379.492 298.06899999999996 380.898Q296.11199999999997 382.304 293.376 382.304Q290.63999999999993 382.304 288.66399999999993 380.898Q286.68799999999993 379.492 285.92799999999994 377.022ZM298.23999999999995 376.224Q298.58199999999994 374.856 298.58199999999994 372.386Q298.58199999999994 369.878 298.27799999999996 368.548Q297.82199999999995 366.838 296.51099999999997 365.831Q295.19999999999993 364.824 293.33799999999997 364.824Q291.47599999999994 364.824 290.18399999999997 365.831Q288.89199999999994 366.838 288.436 368.548Q288.13199999999995 369.878 288.13199999999995 372.386Q288.13199999999995 374.894 288.436 376.224Q288.8539999999999 377.934 290.16499999999996 378.94100000000003Q291.47599999999994 379.948 293.376 379.948Q295.19999999999993 379.948 296.49199999999996 378.94100000000003Q297.78399999999993 377.934 298.23999999999995 376.224Z" fill="#9BA3AC"/><path d="M310.7419999999999 361.86V362.62Q310.7419999999999 362.772 310.89399999999995 362.772H315.1499999999999Q315.5299999999999 362.772 315.5299999999999 363.152V364.862Q315.5299999999999 365.242 315.1499999999999 365.242H310.89399999999995Q310.7419999999999 365.242 310.7419999999999 365.394V381.62Q310.7419999999999 382.0 310.3619999999999 382.0H308.46199999999993Q308.08199999999994 382.0 308.08199999999994 381.62V365.394Q308.08199999999994 365.242 307.92999999999995 365.242H305.38399999999996Q305.0039999999999 365.242 305.0039999999999 364.862V363.152Q305.0039999999999 362.772 305.38399999999996 362.772H307.92999999999995Q308.08199999999994 362.772 308.08199999999994 362.62V361.708Q308.08199999999994 359.352 308.6139999999999 358.003Q309.14599999999996 356.654 310.45699999999994 356.027Q311.7679999999999 355.4 314.1239999999999 355.4H315.22599999999994Q315.60599999999994 355.4 315.60599999999994 355.78V357.376Q315.60599999999994 357.756 315.22599999999994 357.756H314.3519999999999Q312.26199999999994 357.756 311.50199999999995 358.687Q310.7419999999999 359.618 310.7419999999999 361.86Z" fill="#9BA3AC"/><path d="" fill="#9BA3AC"/><path d="M345.92999999999995 362.81Q345.92999999999995 366.116 343.8589999999999 368.13Q341.78799999999995 370.144 338.40599999999995 370.144H330.996Q330.844 370.144 330.844 370.296V381.62Q330.844 382.0 330.464 382.0H328.52599999999995Q328.14599999999996 382.0 328.14599999999996 381.62V355.742Q328.14599999999996 355.362 328.52599999999995 355.362H338.52Q341.864 355.362 343.89699999999993 357.414Q345.92999999999995 359.466 345.92999999999995 362.81ZM343.27 362.848Q343.27 360.53 341.864 359.124Q340.45799999999997 357.718 338.21599999999995 357.718H330.996Q330.844 357.718 330.844 357.87V367.75Q330.844 367.902 330.996 367.902H338.21599999999995Q340.45799999999997 367.902 341.864 366.515Q343.27 365.128 343.27 362.848Z" fill="#9BA3AC"/><path d="M365.27199999999993 371.816V373.032Q365.27199999999993 373.412 364.89199999999994 373.412H352.61799999999994Q352.46599999999995 373.412 352.46599999999995 373.564Q352.542 375.654 352.69399999999996 376.262Q353.11199999999997 377.972 354.47999999999996 378.96Q355.84799999999996 379.948 357.97599999999994 379.948Q359.57199999999995 379.948 360.78799999999995 379.226Q362.00399999999996 378.504 362.68799999999993 377.174Q362.91599999999994 376.832 363.21999999999997 377.022L364.70199999999994 377.896Q365.006 378.086 364.8539999999999 378.428Q363.90399999999994 380.252 362.0039999999999 381.297Q360.1039999999999 382.342 357.63399999999996 382.342Q354.936 382.304 353.11199999999997 381.04999999999995Q351.28799999999995 379.796 350.48999999999995 377.554Q349.806 375.73 349.806 372.31Q349.806 370.714 349.86299999999994 369.707Q349.91999999999996 368.7 350.14799999999997 367.902Q350.794 365.432 352.751 363.95000000000005Q354.70799999999997 362.468 357.48199999999997 362.468Q360.93999999999994 362.468 362.8019999999999 364.216Q364.66399999999993 365.964 365.11999999999995 369.156Q365.27199999999993 370.22 365.27199999999993 371.816ZM352.77 368.396Q352.542 369.194 352.46599999999995 370.98Q352.46599999999995 371.132 352.61799999999994 371.132H362.46Q362.61199999999997 371.132 362.61199999999997 370.98Q362.53599999999994 369.27 362.38399999999996 368.548Q361.96599999999995 366.838 360.693 365.831Q359.41999999999996 364.824 357.48199999999997 364.824Q355.61999999999995 364.824 354.385 365.793Q353.15 366.762 352.77 368.396Z" fill="#9BA3AC"/><path d="M382.94199999999995 355.4H384.88Q385.26 355.4 385.26 355.78V381.62Q385.26 382.0 384.88 382.0H382.94199999999995Q382.56199999999995 382.0 382.56199999999995 381.62V380.024Q382.56199999999995 379.948 382.505 379.929Q382.448 379.91 382.37199999999996 379.986Q381.536 381.088 380.301 381.696Q379.066 382.304 377.546 382.304Q374.88599999999997 382.304 373.08099999999996 380.936Q371.27599999999995 379.568 370.592 377.212Q370.06 375.502 370.06 372.386Q370.06 369.232 370.51599999999996 367.674Q371.2 365.242 373.024 363.855Q374.84799999999996 362.468 377.546 362.468Q379.02799999999996 362.468 380.282 363.057Q381.536 363.646 382.37199999999996 364.748Q382.448 364.824 382.505 364.805Q382.56199999999995 364.786 382.56199999999995 364.71V355.78Q382.56199999999995 355.4 382.94199999999995 355.4ZM382.524 372.386Q382.524 370.562 382.37199999999996 369.517Q382.21999999999997 368.472 381.84 367.674Q381.38399999999996 366.382 380.33899999999994 365.603Q379.294 364.824 377.84999999999997 364.824Q376.33 364.824 375.22799999999995 365.584Q374.126 366.344 373.63199999999995 367.598Q373.176 368.434 372.967 369.47900000000004Q372.758 370.524 372.758 372.386Q372.758 374.172 372.90999999999997 375.179Q373.06199999999995 376.186 373.44199999999995 376.984Q373.89799999999997 378.352 375.05699999999996 379.15Q376.21599999999995 379.948 377.81199999999995 379.948Q379.332 379.948 380.35799999999995 379.15Q381.38399999999996 378.352 381.878 377.022Q382.21999999999997 376.262 382.37199999999996 375.236Q382.524 374.21 382.524 372.386Z" fill="#9BA3AC"/><path d="M401.296 363.076Q401.59999999999997 363.228 401.52399999999994 363.57L401.10599999999994 365.432Q400.99199999999996 365.812 400.61199999999997 365.66Q399.96599999999995 365.394 399.12999999999994 365.394L398.63599999999997 365.432Q396.65999999999997 365.508 395.36799999999994 366.895Q394.07599999999996 368.282 394.07599999999996 370.41V381.62Q394.07599999999996 382.0 393.69599999999997 382.0H391.758Q391.378 382.0 391.378 381.62V363.152Q391.378 362.772 391.758 362.772H393.69599999999997Q394.07599999999996 362.772 394.07599999999996 363.152V365.47Q394.07599999999996 365.584 394.1329999999999 365.603Q394.18999999999994 365.622 394.22799999999995 365.546Q395.02599999999995 364.14 396.26099999999997 363.361Q397.496 362.582 399.12999999999994 362.582Q400.38399999999996 362.582 401.296 363.076Z" fill="#9BA3AC"/><path d="M405.09599999999995 377.022Q404.56399999999996 375.274 404.56399999999996 372.348Q404.56399999999996 369.422 405.09599999999995 367.712Q405.818 365.28 407.794 363.874Q409.77 362.468 412.58199999999994 362.468Q415.28 362.468 417.23699999999997 363.874Q419.19399999999996 365.28 419.91599999999994 367.674Q420.448 369.308 420.448 372.348Q420.448 375.426 419.91599999999994 377.022Q419.19399999999996 379.492 417.23699999999997 380.898Q415.28 382.304 412.544 382.304Q409.80799999999994 382.304 407.83199999999994 380.898Q405.85599999999994 379.492 405.09599999999995 377.022ZM417.40799999999996 376.224Q417.74999999999994 374.856 417.74999999999994 372.386Q417.74999999999994 369.878 417.44599999999997 368.548Q416.98999999999995 366.838 415.679 365.831Q414.36799999999994 364.824 412.506 364.824Q410.64399999999995 364.824 409.352 365.831Q408.05999999999995 366.838 407.604 368.548Q407.29999999999995 369.878 407.29999999999995 372.386Q407.29999999999995 374.894 407.604 376.224Q408.02199999999993 377.934 409.33299999999997 378.94100000000003Q410.64399999999995 379.948 412.544 379.948Q414.36799999999994 379.948 415.65999999999997 378.94100000000003Q416.95199999999994 377.934 417.40799999999996 376.224Z" fill="#9BA3AC"/><path d="" fill="#9BA3AC"/><path d="M451.56999999999994 362.81Q451.56999999999994 366.116 449.4989999999999 368.13Q447.42799999999994 370.144 444.04599999999994 370.144H436.63599999999997Q436.484 370.144 436.484 370.296V381.62Q436.484 382.0 436.104 382.0H434.16599999999994Q433.78599999999994 382.0 433.78599999999994 381.62V355.742Q433.78599999999994 355.362 434.16599999999994 355.362H444.15999999999997Q447.50399999999996 355.362 449.5369999999999 357.414Q451.56999999999994 359.466 451.56999999999994 362.81ZM448.90999999999997 362.848Q448.90999999999997 360.53 447.50399999999996 359.124Q446.09799999999996 357.718 443.85599999999994 357.718H436.63599999999997Q436.484 357.718 436.484 357.87V367.75Q436.484 367.902 436.63599999999997 367.902H443.85599999999994Q446.09799999999996 367.902 447.50399999999996 366.515Q448.90999999999997 365.128 448.90999999999997 362.848Z" fill="#9BA3AC"/><path d="M469.80999999999995 368.852V381.62Q469.80999999999995 382.0 469.42999999999995 382.0H467.49199999999996Q467.11199999999997 382.0 467.11199999999997 381.62V380.062Q467.11199999999997 379.986 467.05499999999995 379.948Q466.99799999999993 379.91 466.92199999999997 379.986Q465.9719999999999 381.126 464.45199999999994 381.715Q462.93199999999996 382.304 461.06999999999994 382.304Q458.37199999999996 382.304 456.54799999999994 380.936Q454.72399999999993 379.568 454.72399999999993 376.756Q454.72399999999993 373.906 456.79499999999996 372.25300000000004Q458.86599999999993 370.6 462.55199999999996 370.6H466.9599999999999Q467.11199999999997 370.6 467.11199999999997 370.448V369.004Q467.11199999999997 367.066 466.02899999999994 365.945Q464.9459999999999 364.824 462.66599999999994 364.824Q460.8419999999999 364.824 459.70199999999994 365.52700000000004Q458.56199999999995 366.23 458.29599999999994 367.484Q458.18199999999996 367.864 457.8399999999999 367.826L455.78799999999995 367.56Q455.36999999999995 367.484 455.44599999999997 367.256Q455.74999999999994 365.128 457.72599999999994 363.798Q459.70199999999994 362.468 462.66599999999994 362.468Q466.08599999999996 362.468 467.948 364.216Q469.80999999999995 365.964 469.80999999999995 368.852ZM467.11199999999997 375.844V372.88Q467.11199999999997 372.728 466.9599999999999 372.728H462.9699999999999Q460.46199999999993 372.728 458.94199999999995 373.754Q457.42199999999997 374.78 457.42199999999997 376.604Q457.42199999999997 378.276 458.58099999999996 379.131Q459.73999999999995 379.986 461.6019999999999 379.986Q463.84399999999994 379.986 465.47799999999995 378.865Q467.11199999999997 377.744 467.11199999999997 375.844Z" fill="#9BA3AC"/><path d="M483.67999999999995 365.014H479.38599999999997Q479.2339999999999 365.014 479.2339999999999 365.166V376.376Q479.2339999999999 378.2 480.05099999999993 378.94100000000003Q480.86799999999994 379.682 482.61599999999993 379.682H483.566Q483.94599999999997 379.682 483.94599999999997 380.062V381.62Q483.94599999999997 382.0 483.566 382.0Q483.10999999999996 382.038 482.15999999999997 382.038Q479.4239999999999 382.038 478.0179999999999 381.012Q476.61199999999997 379.986 476.61199999999997 377.212V365.166Q476.61199999999997 365.014 476.4599999999999 365.014H474.14199999999994Q473.76199999999994 365.014 473.76199999999994 364.634V363.152Q473.76199999999994 362.772 474.14199999999994 362.772H476.4599999999999Q476.61199999999997 362.772 476.61199999999997 362.62V358.212Q476.61199999999997 357.832 476.99199999999996 357.832H478.8539999999999Q479.2339999999999 357.832 479.2339999999999 358.212V362.62Q479.2339999999999 362.772 479.38599999999997 362.772H483.67999999999995Q484.05999999999995 362.772 484.05999999999995 363.152V364.634Q484.05999999999995 365.014 483.67999999999995 365.014Z" fill="#9BA3AC"/><path d="M503.89599999999996 369.08V381.62Q503.89599999999996 382.0 503.51599999999996 382.0H501.5779999999999Q501.1979999999999 382.0 501.1979999999999 381.62V369.612Q501.1979999999999 367.522 499.92499999999995 366.192Q498.65199999999993 364.862 496.6379999999999 364.862Q494.54799999999994 364.862 493.256 366.154Q491.96399999999994 367.446 491.96399999999994 369.536V381.62Q491.96399999999994 382.0 491.58399999999995 382.0H489.64599999999996Q489.26599999999996 382.0 489.26599999999996 381.62V355.78Q489.26599999999996 355.4 489.64599999999996 355.4H491.58399999999995Q491.96399999999994 355.4 491.96399999999994 355.78V364.786Q491.96399999999994 364.862 492.02099999999996 364.9Q492.0779999999999 364.938 492.11599999999993 364.862Q493.78799999999995 362.506 497.2459999999999 362.506Q500.28599999999994 362.506 502.09099999999995 364.292Q503.89599999999996 366.078 503.89599999999996 369.08Z" fill="#9BA3AC"/><path d="M509.44399999999996 357.148Q509.44399999999996 356.198 510.05199999999996 355.609Q510.65999999999997 355.02 511.57199999999995 355.02Q512.4839999999999 355.02 513.0919999999999 355.609Q513.6999999999999 356.198 513.6999999999999 357.148Q513.6999999999999 358.06 513.0919999999999 358.668Q512.4839999999999 359.276 511.57199999999995 359.276Q510.65999999999997 359.276 510.05199999999996 358.668Q509.44399999999996 358.06 509.44399999999996 357.148ZM510.128 381.582V363.114Q510.128 362.734 510.508 362.734H512.4459999999999Q512.826 362.734 512.826 363.114V381.582Q512.826 381.962 512.4459999999999 381.962H510.508Q510.128 381.962 510.128 381.582Z" fill="#9BA3AC"/><path d="M534.068 369.08V381.62Q534.068 382.0 533.688 382.0H531.75Q531.37 382.0 531.37 381.62V369.612Q531.37 367.522 530.097 366.192Q528.8240000000001 364.862 526.8100000000001 364.862Q524.72 364.862 523.428 366.154Q522.136 367.446 522.136 369.536V381.62Q522.136 382.0 521.756 382.0H519.818Q519.438 382.0 519.438 381.62V363.152Q519.438 362.772 519.818 362.772H521.756Q522.136 362.772 522.136 363.152V364.786Q522.136 364.862 522.193 364.9Q522.25 364.938 522.288 364.862Q523.96 362.506 527.418 362.506Q530.458 362.506 532.2629999999999 364.292Q534.068 366.078 534.068 369.08Z" fill="#9BA3AC"/><path d="M552.156 362.772H554.094Q554.474 362.772 554.474 363.152V381.354Q554.474 385.61 552.023 387.586Q549.572 389.562 545.278 389.562Q544.404 389.562 543.948 389.524Q543.568 389.486 543.568 389.106L543.644 387.358Q543.644 387.168 543.758 387.073Q543.872 386.978 544.024 387.016L545.05 387.054Q548.584 387.054 550.18 385.667Q551.776 384.28 551.776 381.278V379.872Q551.776 379.796 551.719 379.777Q551.662 379.758 551.586 379.834Q549.838 382.114 546.608 382.114Q544.138 382.114 542.219 380.784Q540.3 379.454 539.654 377.022Q539.198 375.464 539.198 372.386Q539.198 370.714 539.293 369.574Q539.388 368.434 539.692 367.522Q540.376 365.242 542.162 363.855Q543.948 362.468 546.456 362.468Q549.838 362.468 551.586 364.71Q551.662 364.786 551.719 364.748Q551.776 364.71 551.776 364.634V363.152Q551.776 362.772 552.156 362.772ZM551.776 372.348Q551.776 370.41 551.738 369.745Q551.7 369.08 551.548 368.51Q551.244 366.914 550.047 365.869Q548.85 364.824 547.026 364.824Q545.24 364.824 544.005 365.85Q542.77 366.876 542.276 368.51Q541.896 369.726 541.896 372.31Q541.896 375.084 542.276 376.148Q542.656 377.744 543.929 378.789Q545.202 379.834 547.026 379.834Q548.888 379.834 550.085 378.808Q551.282 377.782 551.586 376.186Q551.7 375.616 551.738 374.78Q551.776 373.944 551.776 372.348Z" fill="#9BA3AC"/><path d="" fill="#9BA3AC"/><path d="M571.84 361.86V362.62Q571.84 362.772 571.9920000000001 362.772H576.248Q576.628 362.772 576.628 363.152V364.862Q576.628 365.242 576.248 365.242H571.9920000000001Q571.84 365.242 571.84 365.394V381.62Q571.84 382.0 571.46 382.0H569.5600000000001Q569.1800000000001 382.0 569.1800000000001 381.62V365.394Q569.1800000000001 365.242 569.028 365.242H566.4820000000001Q566.1020000000001 365.242 566.1020000000001 364.862V363.152Q566.1020000000001 362.772 566.4820000000001 362.772H569.028Q569.1800000000001 362.772 569.1800000000001 362.62V361.708Q569.1800000000001 359.352 569.712 358.003Q570.244 356.654 571.5550000000001 356.027Q572.8660000000001 355.4 575.2220000000001 355.4H576.3240000000001Q576.7040000000001 355.4 576.7040000000001 355.78V357.376Q576.7040000000001 357.756 576.3240000000001 357.756H575.45Q573.36 357.756 572.6 358.687Q571.84 359.618 571.84 361.86Z" fill="#9BA3AC"/><path d="M581.2640000000001 377.022Q580.7320000000001 375.274 580.7320000000001 372.348Q580.7320000000001 369.422 581.2640000000001 367.712Q581.9860000000001 365.28 583.9620000000001 363.874Q585.9380000000001 362.468 588.7500000000001 362.468Q591.4480000000001 362.468 593.4050000000001 363.874Q595.3620000000001 365.28 596.0840000000001 367.674Q596.6160000000001 369.308 596.6160000000001 372.348Q596.6160000000001 375.426 596.0840000000001 377.022Q595.3620000000001 379.492 593.4050000000001 380.898Q591.4480000000001 382.304 588.7120000000001 382.304Q585.9760000000001 382.304 584.0000000000001 380.898Q582.0240000000001 379.492 581.2640000000001 377.022ZM593.576 376.224Q593.9180000000001 374.856 593.9180000000001 372.386Q593.9180000000001 369.878 593.614 368.548Q593.1580000000001 366.838 591.8470000000001 365.831Q590.5360000000001 364.824 588.6740000000001 364.824Q586.8120000000001 364.824 585.5200000000001 365.831Q584.2280000000001 366.838 583.772 368.548Q583.4680000000001 369.878 583.4680000000001 372.386Q583.4680000000001 374.894 583.772 376.224Q584.19 377.934 585.5010000000001 378.94100000000003Q586.8120000000001 379.948 588.7120000000001 379.948Q590.5360000000001 379.948 591.8280000000001 378.94100000000003Q593.1200000000001 377.934 593.576 376.224Z" fill="#9BA3AC"/><path d="M612.0060000000001 363.076Q612.3100000000002 363.228 612.2340000000002 363.57L611.8160000000001 365.432Q611.7020000000001 365.812 611.3220000000001 365.66Q610.6760000000002 365.394 609.8400000000001 365.394L609.3460000000001 365.432Q607.3700000000001 365.508 606.0780000000001 366.895Q604.7860000000001 368.282 604.7860000000001 370.41V381.62Q604.7860000000001 382.0 604.4060000000001 382.0H602.4680000000001Q602.0880000000001 382.0 602.0880000000001 381.62V363.152Q602.0880000000001 362.772 602.4680000000001 362.772H604.4060000000001Q604.7860000000001 362.772 604.7860000000001 363.152V365.47Q604.7860000000001 365.584 604.8430000000001 365.603Q604.9000000000001 365.622 604.9380000000001 365.546Q605.7360000000001 364.14 606.9710000000001 363.361Q608.2060000000001 362.582 609.8400000000001 362.582Q611.0940000000002 362.582 612.0060000000001 363.076Z" fill="#9BA3AC"/><path d="" fill="#9BA3AC"/><path d="M640.8480000000002 357.756H626.9020000000002Q626.7500000000001 357.756 626.7500000000001 357.908V367.294Q626.7500000000001 367.446 626.9020000000002 367.446H636.6680000000001Q637.0480000000001 367.446 637.0480000000001 367.826V369.422Q637.0480000000001 369.802 636.6680000000001 369.802H626.9020000000002Q626.7500000000001 369.802 626.7500000000001 369.954V381.62Q626.7500000000001 382.0 626.3700000000001 382.0H624.4320000000001Q624.0520000000001 382.0 624.0520000000001 381.62V355.78Q624.0520000000001 355.4 624.4320000000001 355.4H640.8480000000002Q641.2280000000002 355.4 641.2280000000002 355.78V357.376Q641.2280000000002 357.756 640.8480000000002 357.756Z" fill="#9BA3AC"/><path d="M662.0520000000001 355.78V357.414Q662.0520000000001 357.794 661.672 357.794H654.224Q654.0720000000001 357.794 654.0720000000001 357.946V381.62Q654.0720000000001 382.0 653.6920000000001 382.0H651.7540000000001Q651.374 382.0 651.374 381.62V357.946Q651.374 357.794 651.2220000000001 357.794H644.0780000000001Q643.6980000000001 357.794 643.6980000000001 357.414V355.78Q643.6980000000001 355.4 644.0780000000001 355.4H661.672Q662.0520000000001 355.4 662.0520000000001 355.78Z" fill="#9BA3AC"/><path d="M666.422 373.906V363.456Q666.422 360.986 667.543 359.086Q668.664 357.186 670.678 356.14099999999996Q672.692 355.096 675.3520000000001 355.096Q678.0120000000001 355.096 680.0260000000001 356.122Q682.0400000000001 357.148 683.1610000000001 359.01Q684.282 360.872 684.282 363.304Q684.282 363.494 684.1680000000001 363.608Q684.0540000000001 363.722 683.902 363.722L681.964 363.836Q681.5840000000001 363.836 681.5840000000001 363.494V363.38Q681.5840000000001 360.682 679.874 359.067Q678.164 357.452 675.3520000000001 357.452Q672.5400000000001 357.452 670.83 359.086Q669.12 360.72 669.12 363.38V374.02Q669.12 376.68 670.83 378.31399999999996Q672.5400000000001 379.948 675.3520000000001 379.948Q678.164 379.948 679.874 378.33299999999997Q681.5840000000001 376.718 681.5840000000001 374.02V373.944Q681.5840000000001 373.602 681.964 373.602L683.902 373.716Q684.282 373.716 684.282 374.058Q684.282 376.528 683.1610000000001 378.409Q682.0400000000001 380.29 680.0260000000001 381.31600000000003Q678.0120000000001 382.342 675.3520000000001 382.342Q672.692 382.342 670.678 381.297Q668.664 380.252 667.543 378.33299999999997Q666.422 376.414 666.422 373.906Z" fill="#9BA3AC"/><path d="M689.868 379.79600000000005Q689.868 378.846 690.4570000000001 378.257Q691.046 377.668 691.9960000000001 377.668Q692.908 377.668 693.5160000000001 378.257Q694.124 378.846 694.124 379.79600000000005Q694.124 380.708 693.5160000000001 381.31600000000003Q692.908 381.92400000000004 691.9960000000001 381.92400000000004Q691.046 381.92400000000004 690.4570000000001 381.31600000000003Q689.868 380.708 689.868 379.79600000000005Z" fill="#9BA3AC"/><path d="M102.32 544.6H103.464Q103.684 544.6 103.684 544.82V559.78Q103.684 560.0 103.464 560.0H102.342Q102.122 560.0 102.122 559.78V547.548Q102.122 547.482 102.078 547.46Q102.03399999999999 547.438 102.012 547.504L98.426 553.004Q98.316 553.158 98.162 553.158H97.59Q97.436 553.158 97.326 553.026L93.74 547.57Q93.718 547.504 93.674 547.5260000000001Q93.63 547.548 93.63 547.614V559.78Q93.63 560.0 93.41 560.0H92.288Q92.068 560.0 92.068 559.78V544.82Q92.068 544.6 92.288 544.6H93.432Q93.608 544.6 93.696 544.732L97.832 551.002Q97.854 551.024 97.898 551.024Q97.942 551.024 97.964 551.002L102.056 544.754Q102.166 544.6 102.32 544.6Z" fill="#6C747D"/><path d="M115.476 552.388V559.78Q115.476 560.0 115.256 560.0H114.134Q113.914 560.0 113.914 559.78V558.878Q113.914 558.834 113.881 558.8119999999999Q113.848 558.79 113.804 558.834Q113.254 559.494 112.374 559.835Q111.494 560.176 110.416 560.176Q108.854 560.176 107.798 559.384Q106.742 558.592 106.742 556.964Q106.742 555.314 107.941 554.357Q109.14 553.4 111.274 553.4H113.82600000000001Q113.914 553.4 113.914 553.312V552.476Q113.914 551.354 113.287 550.705Q112.66 550.056 111.34 550.056Q110.284 550.056 109.624 550.463Q108.964 550.87 108.81 551.596Q108.744 551.816 108.546 551.794L107.358 551.64Q107.116 551.596 107.16000000000001 551.464Q107.336 550.232 108.48 549.462Q109.62400000000001 548.692 111.34 548.692Q113.32000000000001 548.692 114.398 549.704Q115.476 550.716 115.476 552.388ZM113.914 556.436V554.72Q113.914 554.632 113.82600000000001 554.632H111.516Q110.06400000000001 554.632 109.184 555.226Q108.304 555.82 108.304 556.876Q108.304 557.844 108.975 558.3389999999999Q109.646 558.834 110.724 558.834Q112.022 558.834 112.968 558.185Q113.914 557.536 113.914 556.436Z" fill="#6C747D"/><path d="M125.86000000000001 544.6H126.98200000000001Q127.20200000000001 544.6 127.20200000000001 544.82V559.78Q127.20200000000001 560.0 126.98200000000001 560.0H125.86000000000001Q125.64000000000001 560.0 125.64000000000001 559.78V558.856Q125.64000000000001 558.812 125.60700000000001 558.8009999999999Q125.57400000000001 558.79 125.53 558.834Q125.046 559.472 124.33100000000002 559.8240000000001Q123.61600000000001 560.176 122.736 560.176Q121.19600000000001 560.176 120.15100000000001 559.384Q119.10600000000001 558.592 118.71000000000001 557.228Q118.40200000000002 556.238 118.40200000000002 554.434Q118.40200000000002 552.608 118.66600000000001 551.706Q119.06200000000001 550.298 120.11800000000001 549.495Q121.174 548.692 122.736 548.692Q123.59400000000001 548.692 124.32000000000001 549.033Q125.046 549.374 125.53 550.012Q125.57400000000001 550.056 125.60700000000001 550.0450000000001Q125.64000000000001 550.034 125.64000000000001 549.99V544.82Q125.64000000000001 544.6 125.86000000000001 544.6ZM125.61800000000001 554.434Q125.61800000000001 553.378 125.53 552.773Q125.44200000000001 552.168 125.22200000000001 551.706Q124.95800000000001 550.958 124.35300000000001 550.5070000000001Q123.748 550.056 122.912 550.056Q122.03200000000001 550.056 121.394 550.4960000000001Q120.75600000000001 550.936 120.47000000000001 551.662Q120.206 552.146 120.08500000000001 552.751Q119.96400000000001 553.356 119.96400000000001 554.434Q119.96400000000001 555.468 120.05200000000002 556.0509999999999Q120.14000000000001 556.634 120.36000000000001 557.096Q120.62400000000001 557.888 121.29500000000002 558.35Q121.96600000000001 558.812 122.89000000000001 558.812Q123.77000000000001 558.812 124.364 558.35Q124.95800000000001 557.888 125.24400000000001 557.118Q125.44200000000001 556.678 125.53 556.0840000000001Q125.61800000000001 555.49 125.61800000000001 554.434Z" fill="#6C747D"/><path d="M139.368 554.104V554.808Q139.368 555.028 139.148 555.028H132.042Q131.954 555.028 131.954 555.116Q131.99800000000002 556.326 132.086 556.678Q132.328 557.668 133.12 558.24Q133.912 558.812 135.144 558.812Q136.068 558.812 136.772 558.394Q137.476 557.976 137.872 557.206Q138.00400000000002 557.008 138.18 557.118L139.038 557.624Q139.214 557.734 139.126 557.932Q138.57600000000002 558.988 137.476 559.5930000000001Q136.376 560.198 134.946 560.198Q133.38400000000001 560.176 132.32800000000003 559.45Q131.27200000000002 558.724 130.81 557.426Q130.41400000000002 556.37 130.41400000000002 554.39Q130.41400000000002 553.466 130.447 552.883Q130.48000000000002 552.3 130.612 551.838Q130.98600000000002 550.408 132.11900000000003 549.55Q133.252 548.692 134.858 548.692Q136.86 548.692 137.93800000000002 549.704Q139.01600000000002 550.716 139.28 552.564Q139.368 553.18 139.368 554.104ZM132.13 552.124Q131.99800000000002 552.586 131.954 553.62Q131.954 553.708 132.042 553.708H137.74Q137.828 553.708 137.828 553.62Q137.78400000000002 552.63 137.696 552.212Q137.454 551.222 136.717 550.639Q135.98000000000002 550.056 134.858 550.056Q133.78 550.056 133.065 550.617Q132.35000000000002 551.178 132.13 552.124Z" fill="#6C747D"/><path d="" fill="#6C747D"/><path d="M155.692 554.434Q155.692 556.238 155.38400000000001 557.228Q154.966 558.592 153.93200000000002 559.384Q152.89800000000002 560.176 151.358 560.176Q150.478 560.176 149.752 559.8240000000001Q149.026 559.472 148.542 558.812Q148.52 558.768 148.476 558.779Q148.43200000000002 558.79 148.43200000000002 558.834V559.78Q148.43200000000002 560.0 148.21200000000002 560.0H147.09Q146.87 560.0 146.87 559.78V544.82Q146.87 544.6 147.09 544.6H148.21200000000002Q148.43200000000002 544.6 148.43200000000002 544.82V550.012Q148.43200000000002 550.056 148.46500000000003 550.067Q148.49800000000002 550.078 148.542 550.034Q149.026 549.396 149.752 549.044Q150.478 548.692 151.358 548.692Q152.92000000000002 548.692 153.976 549.495Q155.032 550.298 155.42800000000003 551.706Q155.692 552.696 155.692 554.434ZM154.13000000000002 554.434Q154.13000000000002 553.356 154.00900000000001 552.751Q153.888 552.146 153.62400000000002 551.662Q153.33800000000002 550.936 152.70000000000002 550.4960000000001Q152.062 550.056 151.18200000000002 550.056Q150.346 550.056 149.741 550.5070000000001Q149.13600000000002 550.958 148.872 551.706Q148.65200000000002 552.168 148.553 552.762Q148.454 553.356 148.454 554.434Q148.454 555.49 148.553 556.073Q148.65200000000002 556.656 148.85000000000002 557.118Q149.13600000000002 557.888 149.73000000000002 558.35Q150.324 558.812 151.204 558.812Q152.12800000000001 558.812 152.79900000000004 558.35Q153.47000000000003 557.888 153.734 557.096Q153.954 556.634 154.04200000000003 556.0509999999999Q154.13000000000002 555.468 154.13000000000002 554.434Z" fill="#6C747D"/><path d="M158.222 564.18V563.3Q158.222 563.08 158.442 563.08H158.53Q159.388 563.058 159.861 562.827Q160.334 562.596 160.675 561.969Q161.01600000000002 561.342 161.412 560.066Q161.45600000000002 559.978 161.412 559.934L157.69400000000002 549.11L157.67200000000003 549.022Q157.67200000000003 548.868 157.87 548.868H159.036Q159.234 548.868 159.3 549.044L162.16000000000003 557.932Q162.18200000000002 557.976 162.226 557.976Q162.27 557.976 162.292 557.932L165.108 549.044Q165.174 548.868 165.372 548.868H166.51600000000002Q166.758 548.868 166.692 549.11L162.622 560.968Q162.09400000000002 562.442 161.632 563.146Q161.17000000000002 563.85 160.47700000000003 564.125Q159.78400000000002 564.4 158.53 564.4H158.376Q158.222 564.4 158.222 564.18Z" fill="#6C747D"/><path d="" fill="#6C747D"/><path d="M183.478 545.964H175.382Q175.294 545.964 175.294 546.052V551.486Q175.294 551.574 175.382 551.574H181.05800000000002Q181.27800000000002 551.574 181.27800000000002 551.794V552.718Q181.27800000000002 552.938 181.05800000000002 552.938H175.382Q175.294 552.938 175.294 553.026V558.548Q175.294 558.636 175.382 558.636H183.478Q183.698 558.636 183.698 558.856V559.78Q183.698 560.0 183.478 560.0H173.95200000000003Q173.73200000000003 560.0 173.73200000000003 559.78V544.82Q173.73200000000003 544.6 173.95200000000003 544.6H183.478Q183.698 544.6 183.698 544.82V545.744Q183.698 545.964 183.478 545.964Z" fill="#6C747D"/><path d="M186.734 559.78V544.82Q186.734 544.6 186.954 544.6H188.07600000000002Q188.29600000000002 544.6 188.29600000000002 544.82V559.78Q188.29600000000002 560.0 188.07600000000002 560.0H186.954Q186.734 560.0 186.734 559.78Z" fill="#6C747D"/><path d="M200.418 554.104V554.808Q200.418 555.028 200.198 555.028H193.092Q193.00400000000002 555.028 193.00400000000002 555.116Q193.04800000000003 556.326 193.13600000000002 556.678Q193.37800000000001 557.668 194.17000000000002 558.24Q194.96200000000002 558.812 196.19400000000002 558.812Q197.11800000000002 558.812 197.822 558.394Q198.526 557.976 198.92200000000003 557.206Q199.05400000000003 557.008 199.23000000000002 557.118L200.08800000000002 557.624Q200.264 557.734 200.17600000000002 557.932Q199.62600000000003 558.988 198.526 559.5930000000001Q197.42600000000002 560.198 195.996 560.198Q194.43400000000003 560.176 193.37800000000004 559.45Q192.32200000000003 558.724 191.86 557.426Q191.46400000000003 556.37 191.46400000000003 554.39Q191.46400000000003 553.466 191.497 552.883Q191.53000000000003 552.3 191.662 551.838Q192.03600000000003 550.408 193.16900000000004 549.55Q194.30200000000002 548.692 195.90800000000002 548.692Q197.91000000000003 548.692 198.98800000000003 549.704Q200.06600000000003 550.716 200.33 552.564Q200.418 553.18 200.418 554.104ZM193.18 552.124Q193.04800000000003 552.586 193.00400000000002 553.62Q193.00400000000002 553.708 193.092 553.708H198.79000000000002Q198.87800000000001 553.708 198.87800000000001 553.62Q198.83400000000003 552.63 198.746 552.212Q198.50400000000002 551.222 197.76700000000002 550.639Q197.03000000000003 550.056 195.90800000000002 550.056Q194.83 550.056 194.115 550.617Q193.40000000000003 551.178 193.18 552.124Z" fill="#6C747D"/><path d="M203.454 557.118Q203.168 556.15 203.168 554.39Q203.168 552.806 203.454 551.706Q203.85000000000002 550.342 204.99400000000003 549.517Q206.13800000000003 548.692 207.722 548.692Q209.32800000000003 548.692 210.50500000000002 549.5060000000001Q211.68200000000002 550.32 212.03400000000002 551.53Q212.144 551.926 212.16600000000003 552.19V552.234Q212.16600000000003 552.388 211.96800000000002 552.432L210.86800000000002 552.586H210.824Q210.67000000000002 552.586 210.62600000000003 552.388L210.56000000000003 552.058Q210.36200000000002 551.222 209.59200000000004 550.639Q208.82200000000003 550.056 207.722 550.056Q206.622 550.056 205.88500000000002 550.639Q205.14800000000002 551.222 204.92800000000003 552.19Q204.73000000000002 553.026 204.73000000000002 554.412Q204.73000000000002 555.864 204.92800000000003 556.656Q205.14800000000002 557.646 205.88500000000002 558.229Q206.622 558.812 207.722 558.812Q208.8 558.812 209.58100000000002 558.251Q210.36200000000002 557.69 210.56000000000003 556.81V556.722L210.58200000000002 556.634Q210.604 556.414 210.84600000000003 556.458L211.924 556.634Q212.144 556.678 212.122 556.876L212.03400000000002 557.316Q211.704 558.592 210.51600000000002 559.384Q209.32800000000003 560.176 207.722 560.176Q206.13800000000003 560.176 205.00500000000002 559.351Q203.872 558.526 203.454 557.118Z" fill="#6C747D"/><path d="M219.734 550.166H217.24800000000002Q217.16000000000003 550.166 217.16000000000003 550.254V556.744Q217.16000000000003 557.8 217.63300000000004 558.229Q218.10600000000002 558.658 219.11800000000002 558.658H219.668Q219.888 558.658 219.888 558.878V559.78Q219.888 560.0 219.668 560.0Q219.40400000000002 560.022 218.854 560.022Q217.27 560.022 216.45600000000002 559.428Q215.64200000000002 558.834 215.64200000000002 557.228V550.254Q215.64200000000002 550.166 215.55400000000003 550.166H214.21200000000002Q213.99200000000002 550.166 213.99200000000002 549.946V549.088Q213.99200000000002 548.868 214.21200000000002 548.868H215.55400000000003Q215.64200000000002 548.868 215.64200000000002 548.78V546.228Q215.64200000000002 546.008 215.86200000000002 546.008H216.94000000000003Q217.16000000000003 546.008 217.16000000000003 546.228V548.78Q217.16000000000003 548.868 217.24800000000002 548.868H219.734Q219.954 548.868 219.954 549.088V549.946Q219.954 550.166 219.734 550.166Z" fill="#6C747D"/><path d="M228.71000000000004 549.044Q228.88600000000002 549.132 228.842 549.33L228.60000000000002 550.408Q228.53400000000002 550.628 228.31400000000002 550.54Q227.94000000000003 550.386 227.45600000000002 550.386L227.17000000000002 550.408Q226.02600000000004 550.452 225.27800000000002 551.255Q224.53000000000003 552.058 224.53000000000003 553.29V559.78Q224.53000000000003 560.0 224.31000000000003 560.0H223.18800000000002Q222.96800000000002 560.0 222.96800000000002 559.78V549.088Q222.96800000000002 548.868 223.18800000000002 548.868H224.31000000000003Q224.53000000000003 548.868 224.53000000000003 549.088V550.43Q224.53000000000003 550.496 224.56300000000005 550.5070000000001Q224.59600000000003 550.518 224.61800000000002 550.474Q225.08000000000004 549.66 225.79500000000002 549.2090000000001Q226.51000000000002 548.758 227.45600000000002 548.758Q228.18200000000002 548.758 228.71000000000004 549.044Z" fill="#6C747D"/><path d="M230.91000000000003 557.118Q230.60200000000003 556.106 230.60200000000003 554.412Q230.60200000000003 552.718 230.91000000000003 551.728Q231.32800000000003 550.32 232.47200000000004 549.5060000000001Q233.61600000000004 548.692 235.24400000000003 548.692Q236.80600000000004 548.692 237.93900000000002 549.5060000000001Q239.07200000000003 550.32 239.49000000000004 551.706Q239.79800000000003 552.652 239.79800000000003 554.412Q239.79800000000003 556.194 239.49000000000004 557.118Q239.07200000000003 558.548 237.93900000000002 559.3620000000001Q236.80600000000004 560.176 235.22200000000004 560.176Q233.63800000000003 560.176 232.49400000000003 559.3620000000001Q231.35000000000002 558.548 230.91000000000003 557.118ZM238.03800000000004 556.656Q238.23600000000005 555.864 238.23600000000005 554.434Q238.23600000000005 552.982 238.06000000000003 552.212Q237.79600000000005 551.222 237.03700000000003 550.639Q236.27800000000005 550.056 235.20000000000005 550.056Q234.12200000000004 550.056 233.37400000000002 550.639Q232.62600000000003 551.222 232.36200000000002 552.212Q232.18600000000004 552.982 232.18600000000004 554.434Q232.18600000000004 555.886 232.36200000000002 556.656Q232.60400000000004 557.646 233.36300000000006 558.229Q234.12200000000004 558.812 235.22200000000004 558.812Q236.27800000000005 558.812 237.02600000000004 558.229Q237.77400000000003 557.646 238.03800000000004 556.656Z" fill="#6C747D"/><path d="M243.27400000000006 559.78V544.82Q243.27400000000006 544.6 243.49400000000006 544.6H244.61600000000004Q244.83600000000004 544.6 244.83600000000004 544.82V558.548Q244.83600000000004 558.636 244.92400000000004 558.636H252.69000000000005Q252.91000000000005 558.636 252.91000000000005 558.856V559.78Q252.91000000000005 560.0 252.69000000000005 560.0H243.49400000000006Q243.27400000000006 560.0 243.27400000000006 559.78Z" fill="#6C747D"/><path d="M255.28600000000006 545.612Q255.28600000000006 545.062 255.63800000000006 544.721Q255.99000000000007 544.38 256.51800000000003 544.38Q257.04600000000005 544.38 257.398 544.721Q257.75000000000006 545.062 257.75000000000006 545.612Q257.75000000000006 546.14 257.398 546.492Q257.04600000000005 546.844 256.51800000000003 546.844Q255.99000000000007 546.844 255.63800000000006 546.492Q255.28600000000006 546.14 255.28600000000006 545.612ZM255.68200000000004 559.758V549.066Q255.68200000000004 548.846 255.90200000000004 548.846H257.02400000000006Q257.244 548.846 257.244 549.066V559.758Q257.244 559.978 257.02400000000006 559.978H255.90200000000004Q255.68200000000004 559.978 255.68200000000004 559.758Z" fill="#6C747D"/><path d="M268.15600000000006 548.868H269.2780000000001Q269.49800000000005 548.868 269.49800000000005 549.088V559.626Q269.49800000000005 562.09 268.07900000000006 563.234Q266.6600000000001 564.378 264.1740000000001 564.378Q263.66800000000006 564.378 263.40400000000005 564.356Q263.1840000000001 564.334 263.1840000000001 564.114L263.22800000000007 563.102Q263.22800000000007 562.992 263.2940000000001 562.9369999999999Q263.36000000000007 562.882 263.4480000000001 562.904L264.0420000000001 562.926Q266.0880000000001 562.926 267.01200000000006 562.123Q267.9360000000001 561.32 267.9360000000001 559.582V558.768Q267.9360000000001 558.724 267.9030000000001 558.713Q267.87000000000006 558.702 267.8260000000001 558.746Q266.8140000000001 560.066 264.9440000000001 560.066Q263.51400000000007 560.066 262.4030000000001 559.296Q261.2920000000001 558.526 260.91800000000006 557.118Q260.65400000000005 556.216 260.65400000000005 554.434Q260.65400000000005 553.466 260.70900000000006 552.806Q260.76400000000007 552.146 260.94000000000005 551.618Q261.33600000000007 550.298 262.37000000000006 549.495Q263.40400000000005 548.692 264.85600000000005 548.692Q266.8140000000001 548.692 267.8260000000001 549.99Q267.87000000000006 550.034 267.9030000000001 550.012Q267.9360000000001 549.99 267.9360000000001 549.946V549.088Q267.9360000000001 548.868 268.15600000000006 548.868ZM267.9360000000001 554.412Q267.9360000000001 553.29 267.9140000000001 552.905Q267.89200000000005 552.52 267.8040000000001 552.19Q267.62800000000004 551.266 266.93500000000006 550.6610000000001Q266.2420000000001 550.056 265.1860000000001 550.056Q264.15200000000004 550.056 263.43700000000007 550.6500000000001Q262.7220000000001 551.244 262.4360000000001 552.19Q262.21600000000007 552.894 262.21600000000007 554.39Q262.21600000000007 555.996 262.4360000000001 556.612Q262.65600000000006 557.536 263.39300000000003 558.141Q264.13000000000005 558.746 265.1860000000001 558.746Q266.26400000000007 558.746 266.9570000000001 558.152Q267.6500000000001 557.558 267.8260000000001 556.634Q267.89200000000005 556.304 267.9140000000001 555.8199999999999Q267.9360000000001 555.336 267.9360000000001 554.412Z" fill="#6C747D"/><path d="M281.31200000000007 552.52V559.78Q281.31200000000007 560.0 281.09200000000004 560.0H279.97Q279.75000000000006 560.0 279.75000000000006 559.78V552.828Q279.75000000000006 551.618 279.01300000000003 550.848Q278.27600000000007 550.078 277.11000000000007 550.078Q275.90000000000003 550.078 275.15200000000004 550.826Q274.40400000000005 551.574 274.40400000000005 552.784V559.78Q274.40400000000005 560.0 274.184 560.0H273.06200000000007Q272.84200000000004 560.0 272.84200000000004 559.78V544.82Q272.84200000000004 544.6 273.06200000000007 544.6H274.184Q274.40400000000005 544.6 274.40400000000005 544.82V550.034Q274.40400000000005 550.078 274.437 550.0999999999999Q274.47 550.122 274.4920000000001 550.078Q275.46000000000004 548.714 277.46200000000005 548.714Q279.22200000000004 548.714 280.26700000000005 549.748Q281.31200000000007 550.782 281.31200000000007 552.52Z" fill="#6C747D"/><path d="M289.47400000000005 550.166H286.98800000000006Q286.90000000000003 550.166 286.90000000000003 550.254V556.744Q286.90000000000003 557.8 287.37300000000005 558.229Q287.84600000000006 558.658 288.85800000000006 558.658H289.4080000000001Q289.62800000000004 558.658 289.62800000000004 558.878V559.78Q289.62800000000004 560.0 289.4080000000001 560.0Q289.14400000000006 560.022 288.59400000000005 560.022Q287.01000000000005 560.022 286.196 559.428Q285.38200000000006 558.834 285.38200000000006 557.228V550.254Q285.38200000000006 550.166 285.29400000000004 550.166H283.95200000000006Q283.732 550.166 283.732 549.946V549.088Q283.732 548.868 283.95200000000006 548.868H285.29400000000004Q285.38200000000006 548.868 285.38200000000006 548.78V546.228Q285.38200000000006 546.008 285.60200000000003 546.008H286.68000000000006Q286.90000000000003 546.008 286.90000000000003 546.228V548.78Q286.90000000000003 548.868 286.98800000000006 548.868H289.47400000000005Q289.6940000000001 548.868 289.6940000000001 549.088V549.946Q289.6940000000001 550.166 289.47400000000005 550.166Z" fill="#6C747D"/><path d="M292.18000000000006 557.184V556.92Q292.18000000000006 556.7 292.40000000000003 556.7H293.456Q293.67600000000004 556.7 293.67600000000004 556.92V557.096Q293.67600000000004 557.822 294.43500000000006 558.361Q295.194 558.9 296.338 558.9Q297.482 558.9 298.18600000000004 558.383Q298.89000000000004 557.866 298.89000000000004 557.074Q298.89000000000004 556.524 298.52700000000004 556.172Q298.16400000000004 555.82 297.66900000000004 555.6220000000001Q297.17400000000004 555.424 296.14000000000004 555.116Q294.908 554.764 294.116 554.412Q293.324 554.06 292.785 553.433Q292.24600000000004 552.806 292.24600000000004 551.838Q292.24600000000004 550.43 293.346 549.594Q294.446 548.758 296.25000000000006 548.758Q297.46000000000004 548.758 298.39500000000004 549.154Q299.33000000000004 549.55 299.836 550.2429999999999Q300.34200000000004 550.936 300.34200000000004 551.794V551.86Q300.34200000000004 552.08 300.122 552.08H299.088Q298.86800000000005 552.08 298.86800000000005 551.86V551.794Q298.86800000000005 551.046 298.153 550.54Q297.43800000000005 550.034 296.228 550.034Q295.10600000000005 550.034 294.42400000000004 550.485Q293.742 550.936 293.742 551.728Q293.742 552.476 294.40200000000004 552.8720000000001Q295.062 553.268 296.44800000000004 553.664Q297.72400000000005 554.038 298.5160000000001 554.3679999999999Q299.30800000000005 554.698 299.88000000000005 555.325Q300.45200000000006 555.952 300.45200000000006 556.964Q300.45200000000006 558.394 299.33000000000004 559.252Q298.208 560.11 296.36 560.11Q295.12800000000004 560.11 294.17100000000005 559.7139999999999Q293.21400000000006 559.318 292.69700000000006 558.658Q292.18000000000006 557.998 292.18000000000006 557.184Z" fill="#6C747D"/><path d="" fill="#6C747D"/><path d="M315.83 555.292Q315.83 556.502 315.5 557.426Q315.06 558.746 314.015 559.461Q312.97 560.176 311.43 560.176Q309.89 560.176 308.78999999999996 559.373Q307.69 558.57 307.272 557.206Q307.074 556.59 307.03000000000003 555.534Q307.03000000000003 555.314 307.25 555.314H308.372Q308.592 555.314 308.592 555.534Q308.636 556.172 308.746 556.722Q308.988 557.69 309.68100000000004 558.251Q310.374 558.812 311.408 558.812Q313.38800000000003 558.812 313.982 557.052Q314.246 556.326 314.246 555.248Q314.246 553.928 313.894 553.092Q313.19 551.508 311.408 551.508Q311.07800000000003 551.508 310.594 551.75Q310.50600000000003 551.794 310.462 551.794Q310.374 551.794 310.308 551.684L309.736 550.914Q309.62600000000003 550.738 309.758 550.606L313.63 546.074Q313.696 545.964 313.586 545.964H307.382Q307.16200000000003 545.964 307.16200000000003 545.744V544.82Q307.16200000000003 544.6 307.382 544.6H315.522Q315.742 544.6 315.742 544.82V545.898Q315.742 546.008 315.632 546.162L312.112 550.386Q312.068 550.43 312.09000000000003 550.463Q312.112 550.496 312.178 550.496Q314.532 550.65 315.39 552.718Q315.83 553.796 315.83 555.292Z" fill="#6C747D"/><path d="M318.822 555.776V548.824Q318.822 546.8 320.076 545.601Q321.33 544.402 323.442 544.402Q325.57599999999996 544.402 326.852 545.6120000000001Q328.128 546.822 328.128 548.824V555.776Q328.128 557.8 326.852 559.01Q325.57599999999996 560.22 323.442 560.22Q321.33 560.22 320.076 559.01Q318.822 557.8 318.822 555.776ZM326.566 555.864V548.758Q326.566 547.416 325.719 546.6020000000001Q324.872 545.788 323.442 545.788Q322.056 545.788 321.22 546.6020000000001Q320.384 547.416 320.384 548.758V555.864Q320.384 557.228 321.22 558.0419999999999Q322.056 558.856 323.442 558.856Q324.84999999999997 558.856 325.70799999999997 558.0419999999999Q326.566 557.228 326.566 555.864Z" fill="#6C747D"/><path d="M339.92 555.27Q339.92 556.634 339.568 557.47Q339.106 558.746 338.094 559.45Q337.082 560.154 335.564 560.154Q333.98 560.154 332.90200000000004 559.406Q331.824 558.658 331.384 557.294Q331.12 556.414 331.12 555.226V548.362Q331.12 546.558 332.308 545.491Q333.496 544.424 335.41 544.424Q337.28 544.424 338.424 545.458Q339.568 546.492 339.568 548.186V548.494Q339.568 548.714 339.348 548.714H338.226Q338.006 548.714 338.006 548.494V548.318Q338.006 547.196 337.28 546.492Q336.554 545.788 335.41 545.788Q334.222 545.788 333.452 546.525Q332.682 547.262 332.682 548.472V551.706Q332.682 551.75 332.726 551.761Q332.77 551.772 332.792 551.728Q333.76 550.408 335.718 550.408Q337.104 550.408 338.039 551.024Q338.974 551.64 339.45799999999997 552.762Q339.92 553.752 339.92 555.27ZM338.358 555.27Q338.358 554.126 338.05 553.51Q337.786 552.696 337.126 552.234Q336.466 551.772 335.498 551.772Q334.53 551.772 333.87 552.245Q333.21 552.718 332.94599999999997 553.554Q332.682 554.236 332.682 555.336Q332.682 556.304 332.902 556.942Q333.166 557.778 333.837 558.284Q334.508 558.79 335.52 558.79Q336.466 558.79 337.148 558.317Q337.83 557.844 338.094 556.942Q338.358 556.26 338.358 555.27Z" fill="#6C747D"/><path d="M351.14 555.688Q351.14 557.206 350.50199999999995 558.262Q349.974 559.164 349.006 559.6700000000001Q348.03799999999995 560.176 346.762 560.176Q345.442 560.176 344.452 559.6590000000001Q343.462 559.142 342.93399999999997 558.152Q342.318 557.052 342.318 555.666Q342.318 554.5 342.78 553.466Q343.286 552.366 344.38599999999997 551.816Q344.496 551.772 344.38599999999997 551.706Q343.65999999999997 551.288 343.198 550.584Q342.53799999999995 549.638 342.53799999999995 548.428Q342.53799999999995 547.196 343.198 546.184Q343.726 545.326 344.661 544.8530000000001Q345.596 544.38 346.762 544.38Q347.972 544.38 348.87399999999997 544.8530000000001Q349.77599999999995 545.326 350.304 546.184Q350.942 547.218 350.942 548.428Q350.942 549.638 350.282 550.628Q349.88599999999997 551.222 349.116 551.706Q349.006 551.772 349.116 551.816Q350.238 552.366 350.722 553.532Q351.14 554.434 351.14 555.688ZM344.078 548.428Q344.078 549.352 344.53999999999996 550.034Q344.892 550.584 345.453 550.8699999999999Q346.014 551.156 346.74 551.156Q347.466 551.156 348.038 550.8589999999999Q348.60999999999996 550.562 348.962 550.012Q349.38 549.418 349.38 548.406Q349.38 547.68 349.04999999999995 547.086Q348.71999999999997 546.47 348.126 546.107Q347.532 545.744 346.71799999999996 545.744Q345.948 545.744 345.354 546.1179999999999Q344.76 546.492 344.43 547.13Q344.078 547.79 344.078 548.428ZM349.578 555.578Q349.578 554.544 349.226 553.796Q348.566 552.344 346.74 552.344Q345.002 552.344 344.32 553.708Q343.924 554.412 343.924 555.6Q343.924 556.832 344.40799999999996 557.602Q345.156 558.812 346.762 558.812Q348.32399999999996 558.812 349.02799999999996 557.668Q349.578 556.832 349.578 555.578Z" fill="#6C747D"/><path d="M362.712 555.27Q362.712 556.634 362.35999999999996 557.47Q361.89799999999997 558.746 360.88599999999997 559.45Q359.87399999999997 560.154 358.356 560.154Q356.772 560.154 355.69399999999996 559.406Q354.616 558.658 354.176 557.294Q353.912 556.414 353.912 555.226V548.362Q353.912 546.558 355.09999999999997 545.491Q356.28799999999995 544.424 358.202 544.424Q360.07199999999995 544.424 361.21599999999995 545.458Q362.35999999999996 546.492 362.35999999999996 548.186V548.494Q362.35999999999996 548.714 362.14 548.714H361.018Q360.79799999999994 548.714 360.79799999999994 548.494V548.318Q360.79799999999994 547.196 360.07199999999995 546.492Q359.34599999999995 545.788 358.202 545.788Q357.01399999999995 545.788 356.24399999999997 546.525Q355.474 547.262 355.474 548.472V551.706Q355.474 551.75 355.518 551.761Q355.56199999999995 551.772 355.58399999999995 551.728Q356.55199999999996 550.408 358.51 550.408Q359.89599999999996 550.408 360.83099999999996 551.024Q361.76599999999996 551.64 362.24999999999994 552.762Q362.712 553.752 362.712 555.27ZM361.15 555.27Q361.15 554.126 360.842 553.51Q360.578 552.696 359.918 552.234Q359.258 551.772 358.28999999999996 551.772Q357.32199999999995 551.772 356.6619999999999 552.245Q356.00199999999995 552.718 355.73799999999994 553.554Q355.474 554.236 355.474 555.336Q355.474 556.304 355.69399999999996 556.942Q355.95799999999997 557.778 356.62899999999996 558.284Q357.29999999999995 558.79 358.31199999999995 558.79Q359.258 558.79 359.93999999999994 558.317Q360.62199999999996 557.844 360.88599999999997 556.942Q361.15 556.26 361.15 555.27Z" fill="#6C747D"/><path d="" fill="#6C747D"/><path d="M369.3119999999999 553.8839999999999Q369.3119999999999 553.334 369.6529999999999 552.9929999999999Q369.9939999999999 552.6519999999999 370.5439999999999 552.6519999999999Q371.07199999999995 552.6519999999999 371.4239999999999 552.9929999999999Q371.7759999999999 553.334 371.7759999999999 553.8839999999999Q371.7759999999999 554.4119999999999 371.4239999999999 554.7639999999999Q371.07199999999995 555.116 370.5439999999999 555.116Q369.9939999999999 555.116 369.6529999999999 554.7639999999999Q369.3119999999999 554.4119999999999 369.3119999999999 553.8839999999999Z" fill="#6C747D"/><path d="" fill="#6C747D"/><path d="M387.02199999999993 552.102Q388.2099999999999 552.586 388.8259999999999 553.5319999999999Q389.4419999999999 554.478 389.4419999999999 555.82Q389.4419999999999 557.8 388.1769999999999 558.9Q386.9119999999999 560.0 384.84399999999994 560.0H379.5199999999999Q379.2999999999999 560.0 379.2999999999999 559.78V544.82Q379.2999999999999 544.6 379.5199999999999 544.6H384.68999999999994Q386.8239999999999 544.6 388.0449999999999 545.656Q389.2659999999999 546.712 389.2659999999999 548.626Q389.2659999999999 549.836 388.6829999999999 550.683Q388.0999999999999 551.53 387.02199999999993 551.97Q386.9119999999999 552.036 387.02199999999993 552.102ZM380.8619999999999 546.052V551.332Q380.8619999999999 551.42 380.94999999999993 551.42H384.68999999999994Q386.0759999999999 551.42 386.9009999999999 550.694Q387.7259999999999 549.968 387.7259999999999 548.758Q387.7259999999999 547.482 386.9009999999999 546.723Q386.0759999999999 545.964 384.68999999999994 545.964H380.94999999999993Q380.8619999999999 545.964 380.8619999999999 546.052ZM387.87999999999994 555.688Q387.87999999999994 554.346 387.0329999999999 553.543Q386.1859999999999 552.74 384.7559999999999 552.74H380.94999999999993Q380.8619999999999 552.74 380.8619999999999 552.828V558.526Q380.8619999999999 558.614 380.94999999999993 558.614H384.84399999999994Q386.2299999999999 558.614 387.05499999999995 557.822Q387.87999999999994 557.03 387.87999999999994 555.688Z" fill="#6C747D"/><path d="M399.7379999999999 548.868H400.8599999999999Q401.07999999999987 548.868 401.07999999999987 549.088V559.78Q401.07999999999987 560.0 400.8599999999999 560.0H399.7379999999999Q399.5179999999999 560.0 399.5179999999999 559.78V558.834Q399.5179999999999 558.79 399.47399999999993 558.768Q399.4299999999999 558.746 399.4079999999999 558.79Q398.4839999999999 560.154 396.4819999999999 560.154Q395.4259999999999 560.154 394.53499999999985 559.725Q393.6439999999999 559.296 393.1269999999999 558.482Q392.6099999999999 557.668 392.6099999999999 556.524V549.088Q392.6099999999999 548.868 392.82999999999987 548.868H393.9519999999999Q394.1719999999999 548.868 394.1719999999999 549.088V556.062Q394.1719999999999 557.316 394.87599999999986 558.053Q395.57999999999987 558.79 396.7899999999999 558.79Q398.04399999999987 558.79 398.7809999999999 558.0419999999999Q399.5179999999999 557.294 399.5179999999999 556.062V549.088Q399.5179999999999 548.868 399.7379999999999 548.868Z" fill="#6C747D"/><path d="M404.4019999999999 545.612Q404.4019999999999 545.062 404.7539999999999 544.721Q405.1059999999999 544.38 405.63399999999984 544.38Q406.16199999999986 544.38 406.5139999999999 544.721Q406.8659999999999 545.062 406.8659999999999 545.612Q406.8659999999999 546.14 406.5139999999999 546.492Q406.16199999999986 546.844 405.63399999999984 546.844Q405.1059999999999 546.844 404.7539999999999 546.492Q404.4019999999999 546.14 404.4019999999999 545.612ZM404.7979999999999 559.758V549.066Q404.7979999999999 548.846 405.01799999999986 548.846H406.1399999999999Q406.35999999999984 548.846 406.35999999999984 549.066V559.758Q406.35999999999984 559.978 406.1399999999999 559.978H405.01799999999986Q404.7979999999999 559.978 404.7979999999999 559.758Z" fill="#6C747D"/><path d="M410.1879999999999 559.78V544.82Q410.1879999999999 544.6 410.4079999999999 544.6H411.52999999999986Q411.7499999999999 544.6 411.7499999999999 544.82V559.78Q411.7499999999999 560.0 411.52999999999986 560.0H410.4079999999999Q410.1879999999999 560.0 410.1879999999999 559.78Z" fill="#6C747D"/><path d="M420.0219999999999 550.166H417.5359999999999Q417.44799999999987 550.166 417.44799999999987 550.254V556.744Q417.44799999999987 557.8 417.9209999999999 558.229Q418.3939999999999 558.658 419.4059999999999 558.658H419.9559999999999Q420.1759999999999 558.658 420.1759999999999 558.878V559.78Q420.1759999999999 560.0 419.9559999999999 560.0Q419.6919999999999 560.022 419.1419999999999 560.022Q417.5579999999999 560.022 416.7439999999999 559.428Q415.9299999999999 558.834 415.9299999999999 557.228V550.254Q415.9299999999999 550.166 415.84199999999987 550.166H414.4999999999999Q414.27999999999986 550.166 414.27999999999986 549.946V549.088Q414.27999999999986 548.868 414.4999999999999 548.868H415.84199999999987Q415.9299999999999 548.868 415.9299999999999 548.78V546.228Q415.9299999999999 546.008 416.14999999999986 546.008H417.2279999999999Q417.44799999999987 546.008 417.44799999999987 546.228V548.78Q417.44799999999987 548.868 417.5359999999999 548.868H420.0219999999999Q420.2419999999999 548.868 420.2419999999999 549.088V549.946Q420.2419999999999 550.166 420.0219999999999 550.166Z" fill="#6C747D"/><path d="" fill="#6C747D"/><path d="M427.58999999999986 557.118Q427.28199999999987 556.106 427.28199999999987 554.412Q427.28199999999987 552.718 427.58999999999986 551.728Q428.00799999999987 550.32 429.1519999999998 549.5060000000001Q430.2959999999998 548.692 431.92399999999986 548.692Q433.4859999999998 548.692 434.6189999999998 549.5060000000001Q435.75199999999984 550.32 436.16999999999985 551.706Q436.47799999999984 552.652 436.47799999999984 554.412Q436.47799999999984 556.194 436.16999999999985 557.118Q435.75199999999984 558.548 434.6189999999998 559.3620000000001Q433.4859999999998 560.176 431.9019999999998 560.176Q430.31799999999987 560.176 429.17399999999986 559.3620000000001Q428.02999999999986 558.548 427.58999999999986 557.118ZM434.71799999999985 556.656Q434.9159999999998 555.864 434.9159999999998 554.434Q434.9159999999998 552.982 434.73999999999984 552.212Q434.47599999999983 551.222 433.71699999999987 550.639Q432.95799999999986 550.056 431.8799999999998 550.056Q430.80199999999985 550.056 430.05399999999986 550.639Q429.30599999999987 551.222 429.04199999999986 552.212Q428.8659999999999 552.982 428.8659999999999 554.434Q428.8659999999999 555.886 429.04199999999986 556.656Q429.2839999999998 557.646 430.04299999999984 558.229Q430.80199999999985 558.812 431.9019999999998 558.812Q432.95799999999986 558.812 433.70599999999985 558.229Q434.45399999999984 557.646 434.71799999999985 556.656Z" fill="#6C747D"/><path d="M448.1159999999999 552.52V559.78Q448.1159999999999 560.0 447.89599999999984 560.0H446.77399999999983Q446.55399999999986 560.0 446.55399999999986 559.78V552.828Q446.55399999999986 551.618 445.8169999999999 550.848Q445.07999999999987 550.078 443.9139999999999 550.078Q442.70399999999984 550.078 441.95599999999985 550.826Q441.20799999999986 551.574 441.20799999999986 552.784V559.78Q441.20799999999986 560.0 440.98799999999983 560.0H439.8659999999999Q439.64599999999984 560.0 439.64599999999984 559.78V549.088Q439.64599999999984 548.868 439.8659999999999 548.868H440.98799999999983Q441.20799999999986 548.868 441.20799999999986 549.088V550.034Q441.20799999999986 550.078 441.2409999999999 550.0999999999999Q441.27399999999983 550.122 441.2959999999999 550.078Q442.26399999999984 548.714 444.26599999999985 548.714Q446.02599999999984 548.714 447.07099999999986 549.748Q448.1159999999999 550.782 448.1159999999999 552.52Z" fill="#6C747D"/><path d="" fill="#6C747D"/><path d="M466.3539999999998 548.89Q466.3539999999998 550.804 465.15499999999986 551.97Q463.95599999999985 553.136 461.9979999999998 553.136H457.70799999999986Q457.61999999999983 553.136 457.61999999999983 553.224V559.78Q457.61999999999983 560.0 457.3999999999998 560.0H456.27799999999985Q456.0579999999998 560.0 456.0579999999998 559.78V544.798Q456.0579999999998 544.578 456.27799999999985 544.578H462.06399999999985Q463.99999999999983 544.578 465.1769999999998 545.766Q466.3539999999998 546.954 466.3539999999998 548.89ZM464.81399999999985 548.912Q464.81399999999985 547.57 463.99999999999983 546.7560000000001Q463.1859999999998 545.942 461.8879999999998 545.942H457.70799999999986Q457.61999999999983 545.942 457.61999999999983 546.03V551.75Q457.61999999999983 551.838 457.70799999999986 551.838H461.8879999999998Q463.1859999999998 551.838 463.99999999999983 551.035Q464.81399999999985 550.232 464.81399999999985 548.912Z" fill="#6C747D"/><path d="M477.55199999999985 554.104V554.808Q477.55199999999985 555.028 477.3319999999998 555.028H470.22599999999983Q470.13799999999986 555.028 470.13799999999986 555.116Q470.18199999999985 556.326 470.2699999999998 556.678Q470.51199999999983 557.668 471.30399999999986 558.24Q472.09599999999983 558.812 473.32799999999986 558.812Q474.25199999999984 558.812 474.95599999999985 558.394Q475.65999999999985 557.976 476.0559999999998 557.206Q476.1879999999998 557.008 476.36399999999986 557.118L477.2219999999998 557.624Q477.39799999999985 557.734 477.30999999999983 557.932Q476.7599999999998 558.988 475.65999999999985 559.5930000000001Q474.55999999999983 560.198 473.1299999999998 560.198Q471.5679999999998 560.176 470.51199999999983 559.45Q469.45599999999985 558.724 468.99399999999986 557.426Q468.59799999999984 556.37 468.59799999999984 554.39Q468.59799999999984 553.466 468.63099999999986 552.883Q468.6639999999998 552.3 468.7959999999998 551.838Q469.16999999999985 550.408 470.3029999999998 549.55Q471.4359999999998 548.692 473.04199999999986 548.692Q475.0439999999998 548.692 476.12199999999984 549.704Q477.1999999999998 550.716 477.4639999999998 552.564Q477.55199999999985 553.18 477.55199999999985 554.104ZM470.31399999999985 552.124Q470.18199999999985 552.586 470.13799999999986 553.62Q470.13799999999986 553.708 470.22599999999983 553.708H475.92399999999986Q476.01199999999983 553.708 476.01199999999983 553.62Q475.96799999999985 552.63 475.8799999999998 552.212Q475.6379999999998 551.222 474.90099999999984 550.639Q474.1639999999998 550.056 473.04199999999986 550.056Q471.9639999999998 550.056 471.2489999999998 550.617Q470.5339999999998 551.178 470.31399999999985 552.124Z" fill="#6C747D"/><path d="M487.7819999999998 544.6H488.9039999999998Q489.12399999999985 544.6 489.12399999999985 544.82V559.78Q489.12399999999985 560.0 488.9039999999998 560.0H487.7819999999998Q487.56199999999984 560.0 487.56199999999984 559.78V558.856Q487.56199999999984 558.812 487.5289999999998 558.8009999999999Q487.4959999999998 558.79 487.4519999999998 558.834Q486.96799999999985 559.472 486.2529999999998 559.8240000000001Q485.53799999999984 560.176 484.65799999999984 560.176Q483.1179999999998 560.176 482.07299999999987 559.384Q481.02799999999985 558.592 480.63199999999983 557.228Q480.32399999999984 556.238 480.32399999999984 554.434Q480.32399999999984 552.608 480.58799999999985 551.706Q480.9839999999998 550.298 482.03999999999985 549.495Q483.09599999999983 548.692 484.65799999999984 548.692Q485.51599999999985 548.692 486.24199999999985 549.033Q486.96799999999985 549.374 487.4519999999998 550.012Q487.4959999999998 550.056 487.5289999999998 550.0450000000001Q487.56199999999984 550.034 487.56199999999984 549.99V544.82Q487.56199999999984 544.6 487.7819999999998 544.6ZM487.53999999999985 554.434Q487.53999999999985 553.378 487.4519999999998 552.773Q487.3639999999998 552.168 487.14399999999983 551.706Q486.8799999999998 550.958 486.27499999999986 550.5070000000001Q485.66999999999985 550.056 484.83399999999983 550.056Q483.95399999999984 550.056 483.3159999999998 550.4960000000001Q482.6779999999998 550.936 482.3919999999998 551.662Q482.1279999999998 552.146 482.00699999999983 552.751Q481.88599999999985 553.356 481.88599999999985 554.434Q481.88599999999985 555.468 481.9739999999998 556.0509999999999Q482.06199999999984 556.634 482.2819999999998 557.096Q482.5459999999998 557.888 483.2169999999998 558.35Q483.8879999999998 558.812 484.81199999999984 558.812Q485.69199999999984 558.812 486.28599999999983 558.35Q486.8799999999998 557.888 487.1659999999998 557.118Q487.3639999999998 556.678 487.4519999999998 556.0840000000001Q487.53999999999985 555.49 487.53999999999985 554.434Z" fill="#6C747D"/><path d="M498.40799999999984 549.044Q498.58399999999983 549.132 498.53999999999985 549.33L498.29799999999983 550.408Q498.23199999999986 550.628 498.01199999999983 550.54Q497.6379999999998 550.386 497.1539999999998 550.386L496.8679999999998 550.408Q495.7239999999998 550.452 494.97599999999983 551.255Q494.22799999999984 552.058 494.22799999999984 553.29V559.78Q494.22799999999984 560.0 494.0079999999998 560.0H492.88599999999985Q492.6659999999998 560.0 492.6659999999998 559.78V549.088Q492.6659999999998 548.868 492.88599999999985 548.868H494.0079999999998Q494.22799999999984 548.868 494.22799999999984 549.088V550.43Q494.22799999999984 550.496 494.26099999999985 550.5070000000001Q494.2939999999998 550.518 494.31599999999986 550.474Q494.77799999999985 549.66 495.4929999999998 549.2090000000001Q496.20799999999986 548.758 497.1539999999998 548.758Q497.8799999999998 548.758 498.40799999999984 549.044Z" fill="#6C747D"/><path d="M500.60799999999983 557.118Q500.29999999999984 556.106 500.29999999999984 554.412Q500.29999999999984 552.718 500.60799999999983 551.728Q501.02599999999984 550.32 502.16999999999985 549.5060000000001Q503.3139999999998 548.692 504.94199999999984 548.692Q506.5039999999998 548.692 507.63699999999983 549.5060000000001Q508.7699999999998 550.32 509.1879999999998 551.706Q509.4959999999998 552.652 509.4959999999998 554.412Q509.4959999999998 556.194 509.1879999999998 557.118Q508.7699999999998 558.548 507.63699999999983 559.3620000000001Q506.5039999999998 560.176 504.9199999999998 560.176Q503.33599999999984 560.176 502.19199999999984 559.3620000000001Q501.04799999999983 558.548 500.60799999999983 557.118ZM507.7359999999998 556.656Q507.9339999999998 555.864 507.9339999999998 554.434Q507.9339999999998 552.982 507.7579999999998 552.212Q507.4939999999998 551.222 506.7349999999998 550.639Q505.97599999999983 550.056 504.8979999999998 550.056Q503.8199999999998 550.056 503.07199999999983 550.639Q502.32399999999984 551.222 502.05999999999983 552.212Q501.88399999999984 552.982 501.88399999999984 554.434Q501.88399999999984 555.886 502.05999999999983 556.656Q502.3019999999998 557.646 503.0609999999998 558.229Q503.8199999999998 558.812 504.9199999999998 558.812Q505.97599999999983 558.812 506.7239999999998 558.229Q507.4719999999998 557.646 507.7359999999998 556.656Z" fill="#6C747D"/><path d="" fill="#6C747D"/><path d="M527.5139999999999 548.89Q527.5139999999999 550.804 526.3149999999998 551.97Q525.1159999999999 553.136 523.1579999999999 553.136H518.8679999999998Q518.7799999999999 553.136 518.7799999999999 553.224V559.78Q518.7799999999999 560.0 518.5599999999998 560.0H517.4379999999999Q517.2179999999998 560.0 517.2179999999998 559.78V544.798Q517.2179999999998 544.578 517.4379999999999 544.578H523.2239999999998Q525.1599999999999 544.578 526.3369999999999 545.766Q527.5139999999999 546.954 527.5139999999999 548.89ZM525.9739999999998 548.912Q525.9739999999998 547.57 525.1599999999999 546.7560000000001Q524.3459999999999 545.942 523.0479999999999 545.942H518.8679999999998Q518.7799999999999 545.942 518.7799999999999 546.03V551.75Q518.7799999999999 551.838 518.8679999999998 551.838H523.0479999999999Q524.3459999999999 551.838 525.1599999999999 551.035Q525.9739999999998 550.232 525.9739999999998 548.912Z" fill="#6C747D"/><path d="M538.0739999999998 552.388V559.78Q538.0739999999998 560.0 537.8539999999998 560.0H536.7319999999999Q536.5119999999998 560.0 536.5119999999998 559.78V558.878Q536.5119999999998 558.834 536.4789999999998 558.8119999999999Q536.4459999999999 558.79 536.4019999999998 558.834Q535.8519999999999 559.494 534.9719999999999 559.835Q534.0919999999999 560.176 533.0139999999999 560.176Q531.4519999999999 560.176 530.3959999999998 559.384Q529.3399999999998 558.592 529.3399999999998 556.964Q529.3399999999998 555.314 530.5389999999998 554.357Q531.7379999999998 553.4 533.8719999999998 553.4H536.4239999999999Q536.5119999999998 553.4 536.5119999999998 553.312V552.476Q536.5119999999998 551.354 535.8849999999998 550.705Q535.2579999999998 550.056 533.9379999999999 550.056Q532.8819999999998 550.056 532.2219999999999 550.463Q531.5619999999999 550.87 531.4079999999999 551.596Q531.3419999999999 551.816 531.1439999999999 551.794L529.9559999999999 551.64Q529.7139999999998 551.596 529.7579999999998 551.464Q529.9339999999999 550.232 531.0779999999999 549.462Q532.2219999999999 548.692 533.9379999999999 548.692Q535.9179999999999 548.692 536.9959999999999 549.704Q538.0739999999998 550.716 538.0739999999998 552.388ZM536.5119999999998 556.436V554.72Q536.5119999999998 554.632 536.4239999999999 554.632H534.1139999999998Q532.6619999999998 554.632 531.7819999999998 555.226Q530.9019999999998 555.82 530.9019999999998 556.876Q530.9019999999998 557.844 531.5729999999999 558.3389999999999Q532.2439999999999 558.834 533.3219999999999 558.834Q534.6199999999999 558.834 535.5659999999998 558.185Q536.5119999999998 557.536 536.5119999999998 556.436Z" fill="#6C747D"/><path d="M546.1039999999998 550.166H543.6179999999998Q543.5299999999999 550.166 543.5299999999999 550.254V556.744Q543.5299999999999 557.8 544.0029999999998 558.229Q544.4759999999998 558.658 545.4879999999998 558.658H546.0379999999998Q546.2579999999998 558.658 546.2579999999998 558.878V559.78Q546.2579999999998 560.0 546.0379999999998 560.0Q545.7739999999998 560.022 545.2239999999998 560.022Q543.6399999999999 560.022 542.8259999999998 559.428Q542.0119999999998 558.834 542.0119999999998 557.228V550.254Q542.0119999999998 550.166 541.9239999999999 550.166H540.5819999999998Q540.3619999999999 550.166 540.3619999999999 549.946V549.088Q540.3619999999999 548.868 540.5819999999998 548.868H541.9239999999999Q542.0119999999998 548.868 542.0119999999998 548.78V546.228Q542.0119999999998 546.008 542.2319999999999 546.008H543.3099999999998Q543.5299999999999 546.008 543.5299999999999 546.228V548.78Q543.5299999999999 548.868 543.6179999999998 548.868H546.1039999999998Q546.3239999999998 548.868 546.3239999999998 549.088V549.946Q546.3239999999998 550.166 546.1039999999998 550.166Z" fill="#6C747D"/><path d="M557.8079999999999 552.52V559.78Q557.8079999999999 560.0 557.5879999999999 560.0H556.4659999999999Q556.2459999999999 560.0 556.2459999999999 559.78V552.828Q556.2459999999999 551.618 555.5089999999998 550.848Q554.7719999999998 550.078 553.6059999999999 550.078Q552.3959999999998 550.078 551.6479999999999 550.826Q550.8999999999999 551.574 550.8999999999999 552.784V559.78Q550.8999999999999 560.0 550.6799999999998 560.0H549.5579999999999Q549.3379999999999 560.0 549.3379999999999 559.78V544.82Q549.3379999999999 544.6 549.5579999999999 544.6H550.6799999999998Q550.8999999999999 544.6 550.8999999999999 544.82V550.034Q550.8999999999999 550.078 550.9329999999999 550.0999999999999Q550.9659999999999 550.122 550.9879999999998 550.078Q551.9559999999999 548.714 553.9579999999999 548.714Q555.7179999999998 548.714 556.7629999999999 549.748Q557.8079999999999 550.782 557.8079999999999 552.52Z" fill="#6C747D"/><path d="M561.0199999999998 545.612Q561.0199999999998 545.062 561.3719999999998 544.721Q561.7239999999998 544.38 562.2519999999998 544.38Q562.7799999999999 544.38 563.1319999999998 544.721Q563.4839999999998 545.062 563.4839999999998 545.612Q563.4839999999998 546.14 563.1319999999998 546.492Q562.7799999999999 546.844 562.2519999999998 546.844Q561.7239999999998 546.844 561.3719999999998 546.492Q561.0199999999998 546.14 561.0199999999998 545.612ZM561.4159999999998 559.758V549.066Q561.4159999999998 548.846 561.6359999999999 548.846H562.7579999999998Q562.9779999999998 548.846 562.9779999999998 549.066V559.758Q562.9779999999998 559.978 562.7579999999998 559.978H561.6359999999999Q561.4159999999998 559.978 561.4159999999998 559.758Z" fill="#6C747D"/><path d="M575.2759999999998 552.52V559.78Q575.2759999999998 560.0 575.0559999999998 560.0H573.9339999999999Q573.7139999999998 560.0 573.7139999999998 559.78V552.828Q573.7139999999998 551.618 572.9769999999999 550.848Q572.2399999999998 550.078 571.0739999999998 550.078Q569.8639999999998 550.078 569.1159999999998 550.826Q568.3679999999998 551.574 568.3679999999998 552.784V559.78Q568.3679999999998 560.0 568.1479999999998 560.0H567.0259999999998Q566.8059999999998 560.0 566.8059999999998 559.78V549.088Q566.8059999999998 548.868 567.0259999999998 548.868H568.1479999999998Q568.3679999999998 548.868 568.3679999999998 549.088V550.034Q568.3679999999998 550.078 568.4009999999998 550.0999999999999Q568.4339999999999 550.122 568.4559999999998 550.078Q569.4239999999999 548.714 571.4259999999998 548.714Q573.1859999999998 548.714 574.2309999999998 549.748Q575.2759999999998 550.782 575.2759999999998 552.52Z" fill="#6C747D"/><path d="M585.7479999999998 548.868H586.8699999999998Q587.0899999999998 548.868 587.0899999999998 549.088V559.626Q587.0899999999998 562.09 585.6709999999998 563.234Q584.2519999999997 564.378 581.7659999999997 564.378Q581.2599999999998 564.378 580.9959999999998 564.356Q580.7759999999997 564.334 580.7759999999997 564.114L580.8199999999998 563.102Q580.8199999999998 562.992 580.8859999999997 562.9369999999999Q580.9519999999998 562.882 581.0399999999997 562.904L581.6339999999998 562.926Q583.6799999999997 562.926 584.6039999999998 562.123Q585.5279999999998 561.32 585.5279999999998 559.582V558.768Q585.5279999999998 558.724 585.4949999999998 558.713Q585.4619999999998 558.702 585.4179999999998 558.746Q584.4059999999997 560.066 582.5359999999997 560.066Q581.1059999999998 560.066 579.9949999999998 559.296Q578.8839999999998 558.526 578.5099999999998 557.118Q578.2459999999998 556.216 578.2459999999998 554.434Q578.2459999999998 553.466 578.3009999999997 552.806Q578.3559999999998 552.146 578.5319999999998 551.618Q578.9279999999998 550.298 579.9619999999998 549.495Q580.9959999999998 548.692 582.4479999999998 548.692Q584.4059999999997 548.692 585.4179999999998 549.99Q585.4619999999998 550.034 585.4949999999998 550.012Q585.5279999999998 549.99 585.5279999999998 549.946V549.088Q585.5279999999998 548.868 585.7479999999998 548.868ZM585.5279999999998 554.412Q585.5279999999998 553.29 585.5059999999999 552.905Q585.4839999999998 552.52 585.3959999999997 552.19Q585.2199999999998 551.266 584.5269999999998 550.6610000000001Q583.8339999999997 550.056 582.7779999999998 550.056Q581.7439999999998 550.056 581.0289999999998 550.6500000000001Q580.3139999999997 551.244 580.0279999999998 552.19Q579.8079999999998 552.894 579.8079999999998 554.39Q579.8079999999998 555.996 580.0279999999998 556.612Q580.2479999999998 557.536 580.9849999999998 558.141Q581.7219999999998 558.746 582.7779999999998 558.746Q583.8559999999998 558.746 584.5489999999998 558.152Q585.2419999999997 557.558 585.4179999999998 556.634Q585.4839999999998 556.304 585.5059999999999 555.8199999999999Q585.5279999999998 555.336 585.5279999999998 554.412Z" fill="#6C747D"/></svg>
